{
	"asset":{
		"copyright":"© 2024 Unity Technologies and the glTFast authors. Licensed under Apache 2.0. See license file at root.",
		"generator":"Khronos glTF Blender I/O v4.3.47",
		"version":"2.0"
	},
	"scene":0,
	"scenes":[
		{
			"name":"simple",
			"nodes":[
				2
			]
		},
		{
			"name":"multi",
			"nodes":[
				0,
				1
			]
		}
	],
	"nodes":[
		{
			"mesh":0,
			"name":"CubeA",
			"translation":[
				-1.5,
				0,
				0
			]
		},
		{
			"mesh":1,
			"name":"CubeB",
			"translation":[
				1.5,
				0,
				0
			]
		},
		{
			"mesh":2,
			"name":"Plane"
		}
	],
	"animations":[
		{
			"channels":[
				{
					"sampler":0,
					"target":{
						"node":0,
						"path":"weights"
					}
				},
				{
					"sampler":1,
					"target":{
						"node":1,
						"path":"weights"
					}
				}
			],
			"name":"multi",
			"samplers":[
				{
					"input":30,
					"interpolation":"LINEAR",
					"output":31
				},
				{
					"input":30,
					"interpolation":"LINEAR",
					"output":32
				}
			]
		}
	],
	"materials":[
		{
			"doubleSided":true,
			"name":"Blue",
			"pbrMetallicRoughness":{
				"baseColorFactor":[
					0.15000000596046448,
					0.15000000596046448,
					1,
					1
				],
				"metallicFactor":0,
				"roughnessFactor":0.4000000059604645
			}
		},
		{
			"doubleSided":true,
			"name":"Red",
			"pbrMetallicRoughness":{
				"baseColorFactor":[
					1,
					0.15000000596046448,
					0.15000000596046448,
					1
				],
				"metallicFactor":0,
				"roughnessFactor":0.4000000059604645
			}
		},
		{
			"doubleSided":true,
			"name":"Green",
			"pbrMetallicRoughness":{
				"baseColorFactor":[
					0.15000000596046448,
					1,
					0.15000000596046448,
					1
				],
				"metallicFactor":0,
				"roughnessFactor":0.4000000059604645
			}
		},
		{
			"doubleSided":true,
			"name":"Pink",
			"pbrMetallicRoughness":{
				"baseColorFactor":[
					1,
					0.15000000596046448,
					1,
					1
				],
				"metallicFactor":0,
				"roughnessFactor":0.4000000059604645
			}
		},
		{
			"doubleSided":true,
			"name":"RedSimple",
			"pbrMetallicRoughness":{
				"baseColorFactor":[
					1,
					0.15000000596046448,
					0.15000000596046448,
					1
				],
				"metallicFactor":0,
				"roughnessFactor":0.4000000059604645
			}
		},
		{
			"doubleSided":true,
			"name":"BlueSimple",
			"pbrMetallicRoughness":{
				"baseColorFactor":[
					0.15000000596046448,
					0.15000000596046448,
					1,
					1
				],
				"metallicFactor":0,
				"roughnessFactor":0.4000000059604645
			}
		}
	],
	"meshes":[
		{
			"extras":{
				"targetNames":[
					"Key 1",
					"Key 2",
					"Key 3"
				]
			},
			"name":"Cube",
			"primitives":[
				{
					"attributes":{
						"POSITION":0,
						"NORMAL":1,
						"TEXCOORD_0":2,
						"COLOR_0":3
					},
					"indices":4,
					"material":0,
					"targets":[
						{
							"POSITION":5,
							"NORMAL":6
						},
						{
							"POSITION":7,
							"NORMAL":8
						},
						{
							"POSITION":9,
							"NORMAL":10
						}
					]
				},
				{
					"attributes":{
						"POSITION":11,
						"NORMAL":12,
						"TEXCOORD_0":13,
						"COLOR_0":14
					},
					"indices":15,
					"material":1,
					"targets":[
						{
							"POSITION":16,
							"NORMAL":17
						},
						{
							"POSITION":18,
							"NORMAL":19
						},
						{
							"POSITION":20,
							"NORMAL":21
						}
					]
				}
			],
			"weights":[
				0,
				0,
				0
			]
		},
		{
			"extras":{
				"targetNames":[
					"Key 1",
					"Key 2",
					"Key 3"
				]
			},
			"name":"Cube",
			"primitives":[
				{
					"attributes":{
						"POSITION":0,
						"NORMAL":1,
						"TEXCOORD_0":2,
						"COLOR_0":3
					},
					"indices":4,
					"material":2,
					"targets":[
						{
							"POSITION":5,
							"NORMAL":6
						},
						{
							"POSITION":7,
							"NORMAL":8
						},
						{
							"POSITION":9,
							"NORMAL":10
						}
					]
				},
				{
					"attributes":{
						"POSITION":11,
						"NORMAL":12,
						"TEXCOORD_0":13,
						"COLOR_0":14
					},
					"indices":15,
					"material":3,
					"targets":[
						{
							"POSITION":16,
							"NORMAL":17
						},
						{
							"POSITION":18,
							"NORMAL":19
						},
						{
							"POSITION":20,
							"NORMAL":21
						}
					]
				}
			],
			"weights":[
				0,
				0,
				0
			]
		},
		{
			"name":"Plane",
			"primitives":[
				{
					"attributes":{
						"POSITION":22,
						"NORMAL":23,
						"TEXCOORD_0":24
					},
					"indices":25,
					"material":4
				},
				{
					"attributes":{
						"POSITION":26,
						"NORMAL":27,
						"TEXCOORD_0":28
					},
					"indices":29,
					"material":5
				}
			]
		}
	],
	"accessors":[
		{
			"bufferView":0,
			"componentType":5126,
			"count":12,
			"max":[
				1,
				1,
				1
			],
			"min":[
				-1,
				-1,
				-1
			],
			"type":"VEC3"
		},
		{
			"bufferView":1,
			"componentType":5126,
			"count":12,
			"type":"VEC3"
		},
		{
			"bufferView":2,
			"componentType":5126,
			"count":12,
			"type":"VEC2"
		},
		{
			"bufferView":3,
			"componentType":5126,
			"count":12,
			"type":"VEC3"
		},
		{
			"bufferView":4,
			"componentType":5123,
			"count":18,
			"type":"SCALAR"
		},
		{
			"bufferView":5,
			"componentType":5126,
			"count":12,
			"max":[
				1,
				0,
				0.5
			],
			"min":[
				0,
				-0.5,
				-0.5
			],
			"type":"VEC3"
		},
		{
			"bufferView":6,
			"componentType":5126,
			"count":12,
			"type":"VEC3"
		},
		{
			"bufferView":7,
			"componentType":5126,
			"count":12,
			"max":[
				0.75,
				0,
				0.75
			],
			"min":[
				-0.75,
				-1,
				-0.75
			],
			"type":"VEC3"
		},
		{
			"bufferView":8,
			"componentType":5126,
			"count":12,
			"type":"VEC3"
		},
		{
			"bufferView":9,
			"componentType":5126,
			"count":12,
			"max":[
				0,
				0,
				0.5
			],
			"min":[
				-1,
				-0.5,
				-0.5
			],
			"type":"VEC3"
		},
		{
			"bufferView":10,
			"componentType":5126,
			"count":12,
			"type":"VEC3"
		},
		{
			"bufferView":11,
			"componentType":5126,
			"count":12,
			"max":[
				1,
				1,
				1
			],
			"min":[
				-1,
				-1,
				-1
			],
			"type":"VEC3"
		},
		{
			"bufferView":12,
			"componentType":5126,
			"count":12,
			"type":"VEC3"
		},
		{
			"bufferView":13,
			"componentType":5126,
			"count":12,
			"type":"VEC2"
		},
		{
			"bufferView":14,
			"componentType":5126,
			"count":12,
			"type":"VEC3"
		},
		{
			"bufferView":15,
			"componentType":5123,
			"count":18,
			"type":"SCALAR"
		},
		{
			"bufferView":16,
			"componentType":5126,
			"count":12,
			"max":[
				1,
				0,
				0.5
			],
			"min":[
				0,
				-0.5,
				-0.5
			],
			"type":"VEC3"
		},
		{
			"bufferView":17,
			"componentType":5126,
			"count":12,
			"type":"VEC3"
		},
		{
			"bufferView":18,
			"componentType":5126,
			"count":12,
			"max":[
				0.75,
				0,
				0.75
			],
			"min":[
				-0.75,
				-1,
				-0.75
			],
			"type":"VEC3"
		},
		{
			"bufferView":19,
			"componentType":5126,
			"count":12,
			"type":"VEC3"
		},
		{
			"bufferView":20,
			"componentType":5126,
			"count":12,
			"max":[
				0,
				0,
				0.5
			],
			"min":[
				-1,
				-0.5,
				-0.5
			],
			"type":"VEC3"
		},
		{
			"bufferView":21,
			"componentType":5126,
			"count":12,
			"type":"VEC3"
		},
		{
			"bufferView":22,
			"componentType":5126,
			"count":3,
			"max":[
				0.5,
				0,
				0.5
			],
			"min":[
				-0.5,
				0,
				-0.5
			],
			"type":"VEC3"
		},
		{
			"bufferView":23,
			"componentType":5126,
			"count":3,
			"type":"VEC3"
		},
		{
			"bufferView":24,
			"componentType":5126,
			"count":3,
			"type":"VEC2"
		},
		{
			"bufferView":25,
			"componentType":5123,
			"count":3,
			"type":"SCALAR"
		},
		{
			"bufferView":26,
			"componentType":5126,
			"count":3,
			"max":[
				0.5,
				0,
				0.5
			],
			"min":[
				-0.5,
				0,
				-0.5
			],
			"type":"VEC3"
		},
		{
			"bufferView":27,
			"componentType":5126,
			"count":3,
			"type":"VEC3"
		},
		{
			"bufferView":28,
			"componentType":5126,
			"count":3,
			"type":"VEC2"
		},
		{
			"bufferView":29,
			"componentType":5123,
			"count":3,
			"type":"SCALAR"
		},
		{
			"bufferView":30,
			"componentType":5126,
			"count":40,
			"max":[
				1.6666666666666667
			],
			"min":[
				0.041666666666666664
			],
			"type":"SCALAR"
		},
		{
			"bufferView":31,
			"componentType":5126,
			"count":120,
			"type":"SCALAR"
		},
		{
			"bufferView":32,
			"componentType":5126,
			"count":120,
			"type":"SCALAR"
		}
	],
	"bufferViews":[
		{
			"buffer":0,
			"byteLength":144,
			"byteOffset":0,
			"target":34962
		},
		{
			"buffer":0,
			"byteLength":144,
			"byteOffset":144,
			"target":34962
		},
		{
			"buffer":0,
			"byteLength":96,
			"byteOffset":288,
			"target":34962
		},
		{
			"buffer":0,
			"byteLength":144,
			"byteOffset":384,
			"target":34962
		},
		{
			"buffer":0,
			"byteLength":36,
			"byteOffset":528,
			"target":34963
		},
		{
			"buffer":0,
			"byteLength":144,
			"byteOffset":564,
			"target":34962
		},
		{
			"buffer":0,
			"byteLength":144,
			"byteOffset":708,
			"target":34962
		},
		{
			"buffer":0,
			"byteLength":144,
			"byteOffset":852,
			"target":34962
		},
		{
			"buffer":0,
			"byteLength":144,
			"byteOffset":996,
			"target":34962
		},
		{
			"buffer":0,
			"byteLength":144,
			"byteOffset":1140,
			"target":34962
		},
		{
			"buffer":0,
			"byteLength":144,
			"byteOffset":1284,
			"target":34962
		},
		{
			"buffer":0,
			"byteLength":144,
			"byteOffset":1428,
			"target":34962
		},
		{
			"buffer":0,
			"byteLength":144,
			"byteOffset":1572,
			"target":34962
		},
		{
			"buffer":0,
			"byteLength":96,
			"byteOffset":1716,
			"target":34962
		},
		{
			"buffer":0,
			"byteLength":144,
			"byteOffset":1812,
			"target":34962
		},
		{
			"buffer":0,
			"byteLength":36,
			"byteOffset":1956,
			"target":34963
		},
		{
			"buffer":0,
			"byteLength":144,
			"byteOffset":1992,
			"target":34962
		},
		{
			"buffer":0,
			"byteLength":144,
			"byteOffset":2136,
			"target":34962
		},
		{
			"buffer":0,
			"byteLength":144,
			"byteOffset":2280,
			"target":34962
		},
		{
			"buffer":0,
			"byteLength":144,
			"byteOffset":2424,
			"target":34962
		},
		{
			"buffer":0,
			"byteLength":144,
			"byteOffset":2568,
			"target":34962
		},
		{
			"buffer":0,
			"byteLength":144,
			"byteOffset":2712,
			"target":34962
		},
		{
			"buffer":0,
			"byteLength":36,
			"byteOffset":2856,
			"target":34962
		},
		{
			"buffer":0,
			"byteLength":36,
			"byteOffset":2892,
			"target":34962
		},
		{
			"buffer":0,
			"byteLength":24,
			"byteOffset":2928,
			"target":34962
		},
		{
			"buffer":0,
			"byteLength":6,
			"byteOffset":2952,
			"target":34963
		},
		{
			"buffer":0,
			"byteLength":36,
			"byteOffset":2960,
			"target":34962
		},
		{
			"buffer":0,
			"byteLength":36,
			"byteOffset":2996,
			"target":34962
		},
		{
			"buffer":0,
			"byteLength":24,
			"byteOffset":3032,
			"target":34962
		},
		{
			"buffer":0,
			"byteLength":6,
			"byteOffset":3056,
			"target":34963
		},
		{
			"buffer":0,
			"byteLength":160,
			"byteOffset":3064
		},
		{
			"buffer":0,
			"byteLength":480,
			"byteOffset":3224
		},
		{
			"buffer":0,
			"byteLength":480,
			"byteOffset":3704
		}
	],
	"buffers":[
		{
			"byteLength":4184,
			"uri":"SubMesh.bin"
		}
	]
}
