{
	"asset":{
        "copyright":"© 2026 Unity Technologies and the glTFast authors. Licensed under Apache 2.0. See license file at root.",
		"generator":"Khronos glTF Blender I/O v5.0.21",
		"version":"2.0"
	},
	"extensionsUsed":[
		"KHR_materials_unlit"
	],
	"scene":0,
	"scenes":[
		{
			"name":"Scene",
			"nodes":[
				0,
				1,
				2,
				3,
				4,
				5,
				6,
				7,
				8,
				9,
				10,
				11,
				12,
				13,
                14
			]
		}
	],
	"nodes":[
		{
			"mesh":0,
			"name":"CheckMark"
		},
		{
			"mesh":1,
			"name":"VertexAlpha",
			"translation":[
				0,
				2,
				0
			]
		},
		{
			"mesh":2,
			"name":"BaseColorFactor",
			"translation":[
				1.9999998807907104,
				2,
				0
			]
		},
		{
			"mesh":3,
			"name":"BaseColorTexture",
			"translation":[
				3.999999761581421,
				2,
				0
			]
		},
		{
			"mesh":4,
			"name":"VertexAlphaBaseColorFactor",
			"translation":[
				0,
				4,
				0
			]
		},
		{
			"mesh":5,
			"name":"VertexAlphaBaseColorTexture",
			"translation":[
				1.9999998807907104,
				4,
				0
			]
		},
		{
			"mesh":6,
			"name":"BaseColorFactorTexture",
			"translation":[
				3.999999761581421,
				4,
				0
			]
		},
		{
			"mesh":7,
			"name":"CheckMark.Unlit",
			"translation":[
				0,
				-6,
				0
			]
		},
		{
			"mesh":8,
			"name":"VertexAlpha.Unlit",
			"translation":[
				0,
				-4,
				0
			]
		},
		{
			"mesh":9,
			"name":"BaseColorFactor.Unlit",
			"translation":[
				1.9999998807907104,
				-4,
				0
			]
		},
		{
			"mesh":10,
			"name":"BaseColorTexture.Unlit",
			"translation":[
				3.999999761581421,
				-4,
				0
			]
		},
		{
			"mesh":11,
			"name":"VertexAlphaBaseColorFactor.Unlit",
			"translation":[
				0,
				-2,
				0
			]
		},
		{
			"mesh":12,
			"name":"VertexAlphaBaseColorTexture.Unlit",
			"translation":[
				1.9999998807907104,
				-2,
				0
			]
		},
		{
			"mesh":13,
			"name":"BaseColorFactorTexture.Unlit",
			"translation":[
				3.999999761581421,
				-2,
				0
			]
		},
        {
			"mesh":14,
			"name":"Background",
			"translation":[
				2,
				-1,
				-1
			],
            "scale": [
                3,
                6,
                1
            ]
		}
	],
	"materials":[
		{
			"alphaMode":"BLEND",
			"doubleSided":true,
			"name":"CheckMark",
			"pbrMetallicRoughness":{
				"metallicFactor":0
			}
		},
		{
			"alphaMode":"BLEND",
			"doubleSided":true,
			"name":"VertexAlpha",
			"pbrMetallicRoughness":{
				"metallicFactor":0
			}
		},
		{
			"alphaMode":"BLEND",
			"doubleSided":true,
			"name":"BaseColorFactor",
			"pbrMetallicRoughness":{
				"baseColorFactor":[
					1,
					1,
					1,
					0.5
				],
				"metallicFactor":0
			}
		},
		{
			"alphaMode":"BLEND",
			"doubleSided":true,
			"name":"BaseColorTexture",
			"pbrMetallicRoughness":{
				"baseColorTexture":{
					"index":0
				},
				"metallicFactor":0
			}
		},
		{
			"alphaMode":"BLEND",
			"doubleSided":true,
			"name":"VertexAlphaBaseColorFactor",
			"pbrMetallicRoughness":{
				"baseColorFactor":[
					1,
					1,
					1,
					0.70710678
				],
				"metallicFactor":0
			}
		},
		{
			"alphaMode":"BLEND",
			"doubleSided":true,
			"name":"VertexAlphaBaseColorTexture",
			"pbrMetallicRoughness":{
				"baseColorTexture":{
					"index":1
				},
				"metallicFactor":0
			}
		},
		{
			"alphaMode":"BLEND",
			"doubleSided":true,
			"name":"BaseColorFactorTexture",
			"pbrMetallicRoughness":{
				"baseColorFactor":[
					1,
					1,
					1,
					0.70710678
				],
				"baseColorTexture":{
					"index":2
				},
				"metallicFactor":0
			}
		},
		{
			"alphaMode":"BLEND",
			"doubleSided":true,
			"extensions":{
				"KHR_materials_unlit":{}
			},
			"name":"CheckMark.Unlit",
			"pbrMetallicRoughness":{
				"metallicFactor":0,
				"roughnessFactor":0.9
			}
		},
		{
			"alphaMode":"BLEND",
			"doubleSided":true,
			"extensions":{
				"KHR_materials_unlit":{}
			},
			"name":"VertexAlpha.Unlit"
		},
		{
			"alphaMode":"BLEND",
			"pbrMetallicRoughness":{
				"baseColorFactor":[
					1,
					1,
					1,
					0.5
				]
			},
			"doubleSided":true,
			"extensions":{
				"KHR_materials_unlit":{}
			},
			"name":"BaseColorFactor.Unlit"
		},
		{
			"alphaMode":"BLEND",
			"doubleSided":true,
			"extensions":{
				"KHR_materials_unlit":{}
			},
			"name":"BaseColorTexture.Unlit",
			"pbrMetallicRoughness":{
				"baseColorTexture":{
					"index":3
				},
				"metallicFactor":0,
				"roughnessFactor":0.9
			}
		},
		{
			"alphaMode":"BLEND",
			"doubleSided":true,
			"extensions":{
				"KHR_materials_unlit":{}
			},
			"name":"VertexAlphaBaseColorFactor.Unlit",
			"pbrMetallicRoughness":{
				"baseColorFactor":[
					1,
					1,
					1,
					0.70710678
				],
				"metallicFactor":0,
				"roughnessFactor":0.9
			}
		},
		{
			"alphaMode":"BLEND",
			"doubleSided":true,
			"extensions":{
				"KHR_materials_unlit":{}
			},
			"name":"VertexAlphaBaseColorTexture.Unlit",
			"pbrMetallicRoughness":{
				"baseColorTexture":{
					"index":4
				},
				"metallicFactor":0,
				"roughnessFactor":0.9
			}
		},
		{
			"alphaMode":"BLEND",
			"doubleSided":true,
			"extensions":{
				"KHR_materials_unlit":{}
			},
			"name":"BaseColorFactorTexture.Unlit",
			"pbrMetallicRoughness":{
				"baseColorFactor":[
					1,
					1,
					1,
					0.70710678
				],
				"baseColorTexture":{
					"index":5
				},
				"metallicFactor":0,
				"roughnessFactor":0.9
			}
		},
		{
			"name":"Background",
			"pbrMetallicRoughness":{
				"baseColorFactor":[
					0,
					0,
					0,
                    1
				]
			},
            "extensions":{
				"KHR_materials_unlit":{}
			}
		}
	],
	"meshes":[
		{
			"name":"CheckMark",
			"primitives":[
				{
					"attributes":{
						"POSITION":0,
						"NORMAL":1,
						"TEXCOORD_0":2,
						"COLOR_0":3
					},
					"indices":4,
					"material":0
				}
			]
		},
		{
			"name":"VertexAlpha",
			"primitives":[
				{
					"attributes":{
						"POSITION":5,
						"NORMAL":6,
						"TEXCOORD_0":7,
						"COLOR_0":8
					},
					"indices":9,
					"material":1
				}
			]
		},
		{
			"name":"BaseColorFactor",
			"primitives":[
				{
					"attributes":{
						"POSITION":10,
						"NORMAL":11,
						"TEXCOORD_0":12
					},
					"indices":9,
					"material":2
				}
			]
		},
		{
			"name":"BaseColorTexture",
			"primitives":[
				{
					"attributes":{
						"POSITION":13,
						"NORMAL":14,
						"TEXCOORD_0":15
					},
					"indices":9,
					"material":3
				}
			]
		},
		{
			"name":"VertexAlphaBaseColorFactor",
			"primitives":[
				{
					"attributes":{
						"POSITION":16,
						"NORMAL":17,
						"TEXCOORD_0":18,
						"COLOR_0":19
					},
					"indices":9,
					"material":4
				}
			]
		},
		{
			"name":"VertexAlphaBaseColorTexture",
			"primitives":[
				{
					"attributes":{
						"POSITION":20,
						"NORMAL":21,
						"TEXCOORD_0":22,
						"COLOR_0":23
					},
					"indices":9,
					"material":5
				}
			]
		},
		{
			"name":"BaseColorFactorTexture",
			"primitives":[
				{
					"attributes":{
						"POSITION":24,
						"NORMAL":25,
						"TEXCOORD_0":26
					},
					"indices":9,
					"material":6
				}
			]
		},
		{
			"name":"CheckMark",
			"primitives":[
				{
					"attributes":{
						"POSITION":0,
						"NORMAL":1,
						"TEXCOORD_0":2,
						"COLOR_0":3
					},
					"indices":4,
					"material":7
				}
			]
		},
		{
			"name":"VertexAlpha",
			"primitives":[
				{
					"attributes":{
						"POSITION":5,
						"NORMAL":6,
						"TEXCOORD_0":7,
						"COLOR_0":8
					},
					"indices":9,
					"material":8
				}
			]
		},
		{
			"name":"BaseColorFactor",
			"primitives":[
				{
					"attributes":{
						"POSITION":10,
						"NORMAL":11,
						"TEXCOORD_0":12
					},
					"indices":9,
					"material":9
				}
			]
		},
		{
			"name":"BaseColorTexture",
			"primitives":[
				{
					"attributes":{
						"POSITION":13,
						"NORMAL":14,
						"TEXCOORD_0":15
					},
					"indices":9,
					"material":10
				}
			]
		},
		{
			"name":"VertexAlphaBaseColorFactor",
			"primitives":[
				{
					"attributes":{
						"POSITION":16,
						"NORMAL":17,
						"TEXCOORD_0":18,
						"COLOR_0":19
					},
					"indices":9,
					"material":11
				}
			]
		},
		{
			"name":"VertexAlphaBaseColorTexture",
			"primitives":[
				{
					"attributes":{
						"POSITION":20,
						"NORMAL":21,
						"TEXCOORD_0":22,
						"COLOR_0":23
					},
					"indices":9,
					"material":12
				}
			]
		},
		{
			"name":"BaseColorFactorTexture",
			"primitives":[
				{
					"attributes":{
						"POSITION":24,
						"NORMAL":25,
						"TEXCOORD_0":26
					},
					"indices":9,
					"material":13
				}
			]
		},
		{
			"name":"Background",
			"primitives":[
				{
					"attributes":{
						"POSITION":10,
						"NORMAL":11,
						"TEXCOORD_0":12
					},
					"indices":9,
					"material":14
				}
			]
		}
	],
	"textures":[
		{
			"sampler":0,
			"source":0
		},
		{
			"sampler":0,
			"source":1
		},
		{
			"sampler":0,
			"source":1
		},
		{
			"sampler":0,
			"source":0
		},
		{
			"sampler":0,
			"source":1
		},
		{
			"sampler":0,
			"source":1
		}
	],
	"images":[
		{
			"mimeType":"image/png",
			"name":"HalfTransparent",
			"uri":"HalfTransparent.png"
		},
		{
			"mimeType":"image/png",
			"name":"Sqrt2Alpha",
			"uri":"Sqrt2Alpha.png"
		}
	],
	"accessors":[
		{
			"bufferView":0,
			"componentType":5126,
			"count":16,
			"max":[
				0.9860695600509644,
				1,
				4.371138828673793e-08
			],
			"min":[
				-0.9851722717285156,
				-1,
				-4.371138828673793e-08
			],
			"type":"VEC3"
		},
		{
			"bufferView":1,
			"componentType":5126,
			"count":16,
			"type":"VEC3"
		},
		{
			"bufferView":2,
			"componentType":5126,
			"count":16,
			"type":"VEC2"
		},
		{
			"bufferView":3,
			"componentType":5123,
			"count":16,
			"normalized":true,
			"type":"VEC4"
		},
		{
			"bufferView":4,
			"componentType":5123,
			"count":72,
			"type":"SCALAR"
		},
		{
			"bufferView":5,
			"componentType":5126,
			"count":4,
			"max":[
				1,
				1,
				4.371138828673793e-08
			],
			"min":[
				-1,
				-1,
				-4.371138828673793e-08
			],
			"type":"VEC3"
		},
		{
			"bufferView":6,
			"componentType":5126,
			"count":4,
			"type":"VEC3"
		},
		{
			"bufferView":7,
			"componentType":5126,
			"count":4,
			"type":"VEC2"
		},
		{
			"bufferView":8,
			"componentType":5123,
			"count":4,
			"normalized":true,
			"type":"VEC4"
		},
		{
			"bufferView":9,
			"componentType":5123,
			"count":6,
			"type":"SCALAR"
		},
		{
			"bufferView":10,
			"componentType":5126,
			"count":4,
			"max":[
				1,
				1,
				4.371138828673793e-08
			],
			"min":[
				-1,
				-1,
				-4.371138828673793e-08
			],
			"type":"VEC3"
		},
		{
			"bufferView":11,
			"componentType":5126,
			"count":4,
			"type":"VEC3"
		},
		{
			"bufferView":12,
			"componentType":5126,
			"count":4,
			"type":"VEC2"
		},
		{
			"bufferView":13,
			"componentType":5126,
			"count":4,
			"max":[
				1,
				1,
				4.371138828673793e-08
			],
			"min":[
				-1,
				-1,
				-4.371138828673793e-08
			],
			"type":"VEC3"
		},
		{
			"bufferView":14,
			"componentType":5126,
			"count":4,
			"type":"VEC3"
		},
		{
			"bufferView":15,
			"componentType":5126,
			"count":4,
			"type":"VEC2"
		},
		{
			"bufferView":16,
			"componentType":5126,
			"count":4,
			"max":[
				1,
				1,
				4.371138828673793e-08
			],
			"min":[
				-1,
				-1,
				-4.371138828673793e-08
			],
			"type":"VEC3"
		},
		{
			"bufferView":17,
			"componentType":5126,
			"count":4,
			"type":"VEC3"
		},
		{
			"bufferView":18,
			"componentType":5126,
			"count":4,
			"type":"VEC2"
		},
		{
			"bufferView":19,
			"componentType":5123,
			"count":4,
			"normalized":true,
			"type":"VEC4"
		},
		{
			"bufferView":20,
			"componentType":5126,
			"count":4,
			"max":[
				1,
				1,
				4.371138828673793e-08
			],
			"min":[
				-1,
				-1,
				-4.371138828673793e-08
			],
			"type":"VEC3"
		},
		{
			"bufferView":21,
			"componentType":5126,
			"count":4,
			"type":"VEC3"
		},
		{
			"bufferView":22,
			"componentType":5126,
			"count":4,
			"type":"VEC2"
		},
		{
			"bufferView":23,
			"componentType":5123,
			"count":4,
			"normalized":true,
			"type":"VEC4"
		},
		{
			"bufferView":24,
			"componentType":5126,
			"count":4,
			"max":[
				1,
				1,
				4.371138828673793e-08
			],
			"min":[
				-1,
				-1,
				-4.371138828673793e-08
			],
			"type":"VEC3"
		},
		{
			"bufferView":25,
			"componentType":5126,
			"count":4,
			"type":"VEC3"
		},
		{
			"bufferView":26,
			"componentType":5126,
			"count":4,
			"type":"VEC2"
		}
	],
	"bufferViews":[
		{
			"buffer":0,
			"byteLength":192,
			"byteOffset":0,
			"target":34962
		},
		{
			"buffer":0,
			"byteLength":192,
			"byteOffset":192,
			"target":34962
		},
		{
			"buffer":0,
			"byteLength":128,
			"byteOffset":384,
			"target":34962
		},
		{
			"buffer":0,
			"byteLength":128,
			"byteOffset":512,
			"target":34962
		},
		{
			"buffer":0,
			"byteLength":144,
			"byteOffset":640,
			"target":34963
		},
		{
			"buffer":0,
			"byteLength":48,
			"byteOffset":784,
			"target":34962
		},
		{
			"buffer":0,
			"byteLength":48,
			"byteOffset":832,
			"target":34962
		},
		{
			"buffer":0,
			"byteLength":32,
			"byteOffset":880,
			"target":34962
		},
		{
			"buffer":0,
			"byteLength":32,
			"byteOffset":912,
			"target":34962
		},
		{
			"buffer":0,
			"byteLength":12,
			"byteOffset":944,
			"target":34963
		},
		{
			"buffer":0,
			"byteLength":48,
			"byteOffset":956,
			"target":34962
		},
		{
			"buffer":0,
			"byteLength":48,
			"byteOffset":1004,
			"target":34962
		},
		{
			"buffer":0,
			"byteLength":32,
			"byteOffset":1052,
			"target":34962
		},
		{
			"buffer":0,
			"byteLength":48,
			"byteOffset":1084,
			"target":34962
		},
		{
			"buffer":0,
			"byteLength":48,
			"byteOffset":1132,
			"target":34962
		},
		{
			"buffer":0,
			"byteLength":32,
			"byteOffset":1180,
			"target":34962
		},
		{
			"buffer":0,
			"byteLength":48,
			"byteOffset":1212,
			"target":34962
		},
		{
			"buffer":0,
			"byteLength":48,
			"byteOffset":1260,
			"target":34962
		},
		{
			"buffer":0,
			"byteLength":32,
			"byteOffset":1308,
			"target":34962
		},
		{
			"buffer":0,
			"byteLength":32,
			"byteOffset":1340,
			"target":34962
		},
		{
			"buffer":0,
			"byteLength":48,
			"byteOffset":1372,
			"target":34962
		},
		{
			"buffer":0,
			"byteLength":48,
			"byteOffset":1420,
			"target":34962
		},
		{
			"buffer":0,
			"byteLength":32,
			"byteOffset":1468,
			"target":34962
		},
		{
			"buffer":0,
			"byteLength":32,
			"byteOffset":1500,
			"target":34962
		},
		{
			"buffer":0,
			"byteLength":48,
			"byteOffset":1532,
			"target":34962
		},
		{
			"buffer":0,
			"byteLength":48,
			"byteOffset":1580,
			"target":34962
		},
		{
			"buffer":0,
			"byteLength":32,
			"byteOffset":1628,
			"target":34962
		}
	],
	"samplers":[
		{
			"magFilter":9729,
			"minFilter":9987
		}
	],
	"buffers":[
		{
			"byteLength":1660,
			"uri":"AlphaColorSpace.bin"
		}
	]
}
