{
	"asset":{
		"copyright":"© 2024 Unity Technologies and the glTFast authors. Licensed under Apache 2.0. See license file at root.",
		"generator":"Khronos glTF Blender I/O v4.3.47",
		"version":"2.0"
	},
	"scene":0,
	"scenes":[
		{
			"name":"Scene",
			"nodes":[
				0,
				1
			]
		}
	],
	"nodes":[
		{
			"mesh":0,
			"name":"OneTriangle"
		},
		{
			"mesh":1,
			"name":"TwoTriangles",
			"translation":[
				0.6000000238418579,
				0,
				0
			]
		}
	],
	"materials":[
		{
			"doubleSided":true,
			"name":"green",
			"pbrMetallicRoughness":{
				"baseColorFactor":[
					0.3603636920452118,
					0.8000074625015259,
					0.4460119605064392,
					1
				],
				"metallicFactor":0,
				"roughnessFactor":0.5
			}
		},
		{
			"doubleSided":true,
			"name":"pink",
			"pbrMetallicRoughness":{
				"baseColorFactor":[
					0.8000315427780151,
					0.4232356548309326,
					0.7288611531257629,
					1
				],
				"metallicFactor":0,
				"roughnessFactor":0.5
			}
		}
	],
	"meshes":[
		{
			"name":"OneTriangle",
			"primitives":[
				{
					"attributes":{
						"POSITION":0,
						"NORMAL":1,
						"TEXCOORD_0":2
					},
					"indices":3,
					"material":0
				}
			]
		},
		{
			"name":"TwoTriangles",
			"primitives":[
				{
					"attributes":{
						"POSITION":4,
						"NORMAL":5,
						"TEXCOORD_0":6
					},
					"indices":3,
					"material":0
				},
				{
					"attributes":{
						"POSITION":7,
						"NORMAL":8,
						"TEXCOORD_0":9
					},
					"indices":10,
					"material":1
				}
			]
		}
	],
	"accessors":[
		{
			"bufferView":0,
			"componentType":5126,
			"count":3,
			"max":[
				0.20000000298023224,
				0.30000001192092896,
				0.10000000149011612
			],
			"min":[
				-0.10000000894069672,
				-0.20000000298023224,
				-0.30000001192092896
			],
			"type":"VEC3"
		},
		{
			"bufferView":1,
			"componentType":5126,
			"count":3,
			"type":"VEC3"
		},
		{
			"bufferView":2,
			"componentType":5126,
			"count":3,
			"type":"VEC2"
		},
		{
			"bufferView":3,
			"componentType":5123,
			"count":3,
			"type":"SCALAR"
		},
		{
			"bufferView":4,
			"componentType":5126,
			"count":3,
			"max":[
				0.20000000298023224,
				0.30000001192092896,
				0.10000000149011612
			],
			"min":[
				-0.10000000894069672,
				-0.20000000298023224,
				-0.30000001192092896
			],
			"type":"VEC3"
		},
		{
			"bufferView":5,
			"componentType":5126,
			"count":3,
			"type":"VEC3"
		},
		{
			"bufferView":6,
			"componentType":5126,
			"count":3,
			"type":"VEC2"
		},
		{
			"bufferView":7,
			"componentType":5126,
			"count":3,
			"max":[
				-0.10000000894069672,
				0.30000001192092896,
				0.10000000149011612
			],
			"min":[
				-0.4000000059604645,
				-0.20000000298023224,
				-0.30000001192092896
			],
			"type":"VEC3"
		},
		{
			"bufferView":8,
			"componentType":5126,
			"count":3,
			"type":"VEC3"
		},
		{
			"bufferView":9,
			"componentType":5126,
			"count":3,
			"type":"VEC2"
		},
		{
			"bufferView":10,
			"componentType":5123,
			"count":3,
			"type":"SCALAR"
		}
	],
	"bufferViews":[
		{
			"buffer":0,
			"byteLength":36,
			"byteOffset":0,
			"target":34962
		},
		{
			"buffer":0,
			"byteLength":36,
			"byteOffset":36,
			"target":34962
		},
		{
			"buffer":0,
			"byteLength":24,
			"byteOffset":72,
			"target":34962
		},
		{
			"buffer":0,
			"byteLength":6,
			"byteOffset":96,
			"target":34963
		},
		{
			"buffer":0,
			"byteLength":36,
			"byteOffset":104,
			"target":34962
		},
		{
			"buffer":0,
			"byteLength":36,
			"byteOffset":140,
			"target":34962
		},
		{
			"buffer":0,
			"byteLength":24,
			"byteOffset":176,
			"target":34962
		},
		{
			"buffer":0,
			"byteLength":36,
			"byteOffset":200,
			"target":34962
		},
		{
			"buffer":0,
			"byteLength":36,
			"byteOffset":236,
			"target":34962
		},
		{
			"buffer":0,
			"byteLength":24,
			"byteOffset":272,
			"target":34962
		},
		{
			"buffer":0,
			"byteLength":6,
			"byteOffset":296,
			"target":34963
		}
	],
	"buffers":[
		{
			"byteLength":304,
			"uri":"Bounds.bin"
		}
	]
}
