{
    "asset": {
        "copyright": "© 2025 Unity Technologies and the glTFast authors. Licensed under Apache 2.0. See license file at root.",
        "generator": "Khronos glTF Blender I/O v4.5.48",
        "version": "2.0"
    },
    "extensionsUsed": [
        "KHR_texture_basisu"
    ],
    "extensionsRequired": [
        "KHR_texture_basisu"
    ],
    "scene": 0,
    "scenes": [
        {
            "name": "Scene",
            "nodes": [
                0,
                1
            ]
        }
    ],
    "nodes": [
        {
            "mesh": 0,
            "name": "Cube"
        },
        {
            "mesh": 1,
            "name": "Cube.001",
            "translation": [
                0.30000001192092896,
                0,
                0
            ]
        }
    ],
    "materials": [
        {
            "doubleSided": true,
            "name": "Material0",
            "pbrMetallicRoughness": {
                "baseColorTexture": {
                    "index": 0
                },
                "metallicFactor": 0,
                "roughnessFactor": 0.5
            }
        },
        {
            "doubleSided": true,
            "name": "Material1",
            "pbrMetallicRoughness": {
                "baseColorTexture": {
                    "index": 1
                },
                "metallicFactor": 0,
                "roughnessFactor": 0.5
            }
        }
    ],
    "meshes": [
        {
            "name": "Cube",
            "primitives": [
                {
                    "attributes": {
                        "POSITION": 0,
                        "NORMAL": 1,
                        "TEXCOORD_0": 2
                    },
                    "indices": 3,
                    "material": 0
                }
            ]
        },
        {
            "name": "Cube",
            "primitives": [
                {
                    "attributes": {
                        "POSITION": 0,
                        "NORMAL": 1,
                        "TEXCOORD_0": 2
                    },
                    "indices": 3,
                    "material": 1
                }
            ]
        }
    ],
    "textures": [
        {
            "sampler": 0,
            "extensions": {
                "KHR_texture_basisu": {
                    "source": 0
                }
            }
        },
        {
            "sampler": 1,
            "extensions": {
                "KHR_texture_basisu": {
                    "source": 0
                }
            }
        }
    ],
    "images": [
        {
            "bufferView": 4,
            "mimeType": "image/ktx2",
            "name": "Texture0"
        }
    ],
    "accessors": [
        {
            "bufferView": 0,
            "componentType": 5126,
            "count": 24,
            "max": [
                0.10000000149011612,
                0.10000000149011612,
                0.10000000149011612
            ],
            "min": [
                -0.10000000149011612,
                -0.10000000149011612,
                -0.10000000149011612
            ],
            "type": "VEC3"
        },
        {
            "bufferView": 1,
            "componentType": 5126,
            "count": 24,
            "type": "VEC3"
        },
        {
            "bufferView": 2,
            "componentType": 5126,
            "count": 24,
            "type": "VEC2"
        },
        {
            "bufferView": 3,
            "componentType": 5123,
            "count": 36,
            "type": "SCALAR"
        }
    ],
    "bufferViews": [
        {
            "buffer": 0,
            "byteLength": 288,
            "byteOffset": 0,
            "target": 34962
        },
        {
            "buffer": 0,
            "byteLength": 288,
            "byteOffset": 288,
            "target": 34962
        },
        {
            "buffer": 0,
            "byteLength": 192,
            "byteOffset": 576,
            "target": 34962
        },
        {
            "buffer": 0,
            "byteLength": 72,
            "byteOffset": 768,
            "target": 34963
        },
        {
            "buffer": 0,
            "byteLength": 371,
            "byteOffset": 840
        }
    ],
    "samplers": [
        {
            "magFilter": 9729,
            "minFilter": 9987
        },
        {
            "magFilter": 9728,
            "minFilter": 9984
        }
    ],
    "buffers": [
        {
            "byteLength": 1211,
            "uri": "data:application/octet-stream;base64,"
        }
    ]
}
