{
    "asset" : {
        "copyright": "(c) 2022 Andreas Atteneder, CC BY 4.0.",
        "generator" : "Khronos glTF Blender I/O v1.7.33",
        "version" : "2.0"
    },
    "extensionsUsed" : [
        "KHR_materials_unlit"
    ],
    "scene" : 0,
    "scenes" : [
        {
            "name" : "Scene",
            "nodes" : [
                0,
                1,
                2,
                3,
                4,
                5,
                6,
                7
            ]
        }
    ],
    "nodes" : [
        {
            "mesh" : 0,
            "name" : "Opaque"
        },
        {
            "mesh" : 1,
            "name" : "Opaque-DoubleSided",
            "rotation" : [
                0,
                1,
                0,
                -1.6292068494294654e-07
            ],
            "translation" : [
                1,
                0,
                0
            ]
        },
        {
            "mesh" : 2,
            "name" : "Blend",
            "translation" : [
                0,
                1,
                0
            ]
        },
        {
            "mesh" : 3,
            "name" : "Blend-DoubleSided",
            "rotation" : [
                0,
                1,
                0,
                -1.6292068494294654e-07
            ],
            "translation" : [
                1,
                1,
                0
            ]
        },
        {
            "mesh" : 4,
            "name" : "Mask",
            "translation" : [
                0,
                2,
                0
            ]
        },
        {
            "mesh" : 5,
            "name" : "Mask-DoubleSided",
            "rotation" : [
                0,
                1,
                0,
                -1.6292068494294654e-07
            ],
            "translation" : [
                1,
                2,
                0
            ]
        },
        {
            "mesh" : 6,
            "name" : "Mask-Cutoff90",
            "translation" : [
                0,
                3,
                0
            ]
        },
        {
            "mesh" : 7,
            "name" : "Mask-Cutoff90-DoubleSided",
            "rotation" : [
                0,
                1,
                0,
                -1.6292068494294654e-07
            ],
            "translation" : [
                1,
                3,
                0
            ]
        }
    ],
    "materials" : [
        {
            "extensions" : {
                "KHR_materials_unlit" : {}
            },
            "name" : "Opaque",
            "pbrMetallicRoughness" : {
                "baseColorFactor" : [
                    1,
                    0.9514285922050476,
                    0.1499999761581421,
                    1
                ]
            }
        },
        {
            "doubleSided" : true,
            "extensions" : {
                "KHR_materials_unlit" : {}
            },
            "name" : "OpaqueDoubleSided",
            "pbrMetallicRoughness" : {
                "baseColorFactor" : [
                    1,
                    0.15000000596046448,
                    0.15000000596046448,
                    1
                ]
            }
        },
        {
            "extensions" : {
                "KHR_materials_unlit" : {}
            },
            "alphaMode" : "BLEND",
            "name" : "Blend",
            "pbrMetallicRoughness" : {
                "baseColorFactor" : [
                    1,
                    0.9514285922050476,
                    0.1499999761581421,
                    0.5
                ]
            }
        },
        {
            "extensions" : {
                "KHR_materials_unlit" : {}
            },
            "alphaMode" : "BLEND",
            "doubleSided" : true,
            "name" : "BlendDoubleSided",
            "pbrMetallicRoughness" : {
                "baseColorFactor" : [
                    1,
                    0.15000000596046448,
                    0.15000000596046448,
                    0.5
                ]
            }
        },
        {
            "extensions" : {
                "KHR_materials_unlit" : {}
            },
            "alphaCutoff" : 0.5,
            "alphaMode" : "MASK",
            "name" : "Mask",
            "pbrMetallicRoughness" : {
                "baseColorFactor" : [
                    1,
                    0.9514285922050476,
                    0.1499999761581421,
                    1
                ],
                "baseColorTexture" : {
                    "index" : 0
                }
            }
        },
        {
            "extensions" : {
                "KHR_materials_unlit" : {}
            },
            "alphaCutoff" : 0.5,
            "alphaMode" : "MASK",
            "doubleSided" : true,
            "emissiveTexture" : {
                "index" : 1
            },
            "name" : "MaskDoubleSided",
            "pbrMetallicRoughness" : {
                "baseColorFactor" : [
                    1,
                    0.15000000596046448,
                    0.15000000596046448,
                    1
                ],
                "baseColorTexture" : {
                    "index" : 0
                }
            }
        },
        {
            "extensions" : {
                "KHR_materials_unlit" : {}
            },
            "alphaCutoff" : 0.9,
            "alphaMode" : "MASK",
            "emissiveTexture" : {
                "index" : 2
            },
            "name" : "Mask90",
            "pbrMetallicRoughness" : {
                "baseColorFactor" : [
                    1,
                    0.9514285922050476,
                    0.1499999761581421,
                    1
                ],
                "baseColorTexture" : {
                    "index" : 0
                }
            }
        },
        {
            "extensions" : {
                "KHR_materials_unlit" : {}
            },
            "alphaCutoff" : 0.9,
            "alphaMode" : "MASK",
            "doubleSided" : true,
            "emissiveTexture" : {
                "index" : 3
            },
            "name" : "Mask90DoubleSided",
            "pbrMetallicRoughness" : {
                "baseColorFactor" : [
                    1,
                    0.15000000596046448,
                    0.15000000596046448,
                    1
                ],
                "baseColorTexture" : {
                    "index" : 0
                }
            }
        }
    ],
    "meshes" : [
        {
            "name" : "Plane",
            "primitives" : [
                {
                    "attributes" : {
                        "POSITION" : 0,
                        "NORMAL" : 1,
                        "TEXCOORD_0" : 2
                    },
                    "indices" : 3,
                    "material" : 0
                }
            ]
        },
        {
            "name" : "Plane",
            "primitives" : [
                {
                    "attributes" : {
                        "POSITION" : 0,
                        "NORMAL" : 1,
                        "TEXCOORD_0" : 2
                    },
                    "indices" : 3,
                    "material" : 1
                }
            ]
        },
        {
            "name" : "Plane",
            "primitives" : [
                {
                    "attributes" : {
                        "POSITION" : 0,
                        "NORMAL" : 1,
                        "TEXCOORD_0" : 2
                    },
                    "indices" : 3,
                    "material" : 2
                }
            ]
        },
        {
            "name" : "Plane",
            "primitives" : [
                {
                    "attributes" : {
                        "POSITION" : 0,
                        "NORMAL" : 1,
                        "TEXCOORD_0" : 2
                    },
                    "indices" : 3,
                    "material" : 3
                }
            ]
        },
        {
            "name" : "Plane",
            "primitives" : [
                {
                    "attributes" : {
                        "POSITION" : 0,
                        "NORMAL" : 1,
                        "TEXCOORD_0" : 2
                    },
                    "indices" : 3,
                    "material" : 4
                }
            ]
        },
        {
            "name" : "PlaneReverted",
            "primitives" : [
                {
                    "attributes" : {
                        "POSITION" : 4,
                        "NORMAL" : 5,
                        "TEXCOORD_0" : 6
                    },
                    "indices" : 3,
                    "material" : 5
                }
            ]
        },
        {
            "name" : "Plane",
            "primitives" : [
                {
                    "attributes" : {
                        "POSITION" : 0,
                        "NORMAL" : 1,
                        "TEXCOORD_0" : 2
                    },
                    "indices" : 3,
                    "material" : 6
                }
            ]
        },
        {
            "name" : "PlaneReverted",
            "primitives" : [
                {
                    "attributes" : {
                        "POSITION" : 4,
                        "NORMAL" : 5,
                        "TEXCOORD_0" : 6
                    },
                    "indices" : 3,
                    "material" : 7
                }
            ]
        }
    ],
    "textures" : [
        {
            "sampler" : 0,
            "source" : 0
        },
        {
            "sampler" : 0,
            "source" : 0
        },
        {
            "sampler" : 0,
            "source" : 0
        },
        {
            "sampler" : 0,
            "source" : 0
        }
    ],
    "images" : [
        {
            "mimeType" : "image/png",
            "name" : "tf",
            "uri" : "textures/tf.png"
        }
    ],
    "accessors" : [
        {
            "bufferView" : 0,
            "componentType" : 5126,
            "count" : 4,
            "max" : [
                0.4999999701976776,
                0.5,
                0
            ],
            "min" : [
                -0.4999999701976776,
                -0.5,
                0
            ],
            "type" : "VEC3"
        },
        {
            "bufferView" : 1,
            "componentType" : 5126,
            "count" : 4,
            "type" : "VEC3"
        },
        {
            "bufferView" : 2,
            "componentType" : 5126,
            "count" : 4,
            "type" : "VEC2"
        },
        {
            "bufferView" : 3,
            "componentType" : 5123,
            "count" : 6,
            "type" : "SCALAR"
        },
        {
            "bufferView" : 4,
            "componentType" : 5126,
            "count" : 4,
            "max" : [
                0.4999999701976776,
                0.5,
                0
            ],
            "min" : [
                -0.4999999701976776,
                -0.5,
                0
            ],
            "type" : "VEC3"
        },
        {
            "bufferView" : 5,
            "componentType" : 5126,
            "count" : 4,
            "type" : "VEC3"
        },
        {
            "bufferView" : 6,
            "componentType" : 5126,
            "count" : 4,
            "type" : "VEC2"
        }
    ],
    "bufferViews" : [
        {
            "buffer" : 0,
            "byteLength" : 48,
            "byteOffset" : 0
        },
        {
            "buffer" : 0,
            "byteLength" : 48,
            "byteOffset" : 48
        },
        {
            "buffer" : 0,
            "byteLength" : 32,
            "byteOffset" : 96
        },
        {
            "buffer" : 0,
            "byteLength" : 12,
            "byteOffset" : 128
        },
        {
            "buffer" : 0,
            "byteLength" : 48,
            "byteOffset" : 140
        },
        {
            "buffer" : 0,
            "byteLength" : 48,
            "byteOffset" : 188
        },
        {
            "buffer" : 0,
            "byteLength" : 32,
            "byteOffset" : 236
        }
    ],
    "samplers" : [
        {
            "magFilter" : 9729,
            "minFilter" : 9987
        }
    ],
    "buffers" : [
        {
            "byteLength" : 268,
            "uri" : "UnlitAlphaModes.bin"
        }
    ]
}
