{"buffers":[{"uri":"FullyTextured.bin","byteLength":456}],"asset":{"version":"2.0","copyright": "© 2024 Unity Technologies and the glTFast authors. Licensed under Apache 2.0. See license file at root.","generator":"gltfpack 0.20"},"extensionsUsed":["KHR_mesh_quantization","KHR_texture_transform","KHR_texture_basisu"],"extensionsRequired":["KHR_mesh_quantization","KHR_texture_basisu"],"bufferViews":[{"buffer":0,"byteOffset":0,"byteLength":192,"byteStride":8,"target":34962},{"buffer":0,"byteOffset":192,"byteLength":96,"byteStride":4,"target":34962},{"buffer":0,"byteOffset":288,"byteLength":96,"byteStride":4,"target":34962},{"buffer":0,"byteOffset":384,"byteLength":72,"target":34963}],"accessors":[{"bufferView":0,"byteOffset":0,"componentType":5123,"count":24,"type":"VEC3","min":[0,0,0],"max":[16383,16383,16383]},{"bufferView":1,"byteOffset":0,"componentType":5120,"count":24,"type":"VEC3","normalized":true},{"bufferView":2,"byteOffset":0,"componentType":5123,"count":24,"type":"VEC2","normalized":true},{"bufferView":3,"byteOffset":0,"componentType":5123,"count":36,"type":"SCALAR"}],"samplers":[{"magFilter":9729,"minFilter":9987}],"images":[{"name":"Emissive128","uri":"Emissive128.ktx2"},{"name":"normal128","uri":"normal128.ktx2"},{"name":"ORM","uri":"ORM.ktx2"},{"name":"ColorGridAlpha128","uri":"ColorGridAlpha128.ktx2"}],"textures":[{"sampler":0,"extensions":{"KHR_texture_basisu":{"source":0}}},{"sampler":0,"extensions":{"KHR_texture_basisu":{"source":1}}},{"sampler":0,"extensions":{"KHR_texture_basisu":{"source":2}}},{"sampler":0,"extensions":{"KHR_texture_basisu":{"source":3}}}],"materials":[{"name":"Material","pbrMetallicRoughness":{"baseColorTexture":{"index":3,"extensions":{"KHR_texture_transform":{"offset":[0,0],"scale":[16.003664,16.003664]}}},"metallicRoughnessTexture":{"index":2,"extensions":{"KHR_texture_transform":{"offset":[0,0],"scale":[16.003664,16.003664]}}}},"normalTexture":{"index":1,"extensions":{"KHR_texture_transform":{"offset":[0,0],"scale":[16.003664,16.003664]}}},"occlusionTexture":{"index":2,"extensions":{"KHR_texture_transform":{"offset":[0,0],"scale":[16.003664,16.003664]}}},"emissiveTexture":{"index":0,"extensions":{"KHR_texture_transform":{"offset":[0,0],"scale":[16.003664,16.003664]}}},"emissiveFactor":[1,1,1],"doubleSided":true}],"meshes":[{"primitives":[{"attributes":{"POSITION":0,"NORMAL":1,"TEXCOORD_0":2},"indices":3,"material":0}]}],"nodes":[{"mesh":0,"translation":[-1,-1,-1],"scale":[0.000122077763,0.000122077763,0.000122077763]}],"scenes":[{"name":"Scene","nodes":[0]}],"scene":0}