{
	"asset":{
		"copyright":"© 2026 Unity Technologies and the glTFast authors. Licensed under Apache 2.0. See license file at root.",
		"generator":"glTFast tests",
		"version":"2.0"
	},
	"scene":0,
	"scenes":[
		{
			"name":"Scene",
			"nodes":[
				0
			]
		}
	],
	"nodes":[
		{
			"mesh":0,
			"name":"Triangles"
		}
	],
	"meshes":[
		{
			"name":"Triangles",
			"primitives":[
				{
					"attributes":{
						"POSITION":0
					},
					"indices":2
				},
				{
					"attributes":{
						"POSITION":0,
						"TEXCOORD_0":1
					},
					"indices":3
				},
				{
					"attributes":{
						"POSITION":0
					},
					"indices":4
				},
				{
					"attributes":{
						"POSITION":0,
						"TEXCOORD_0":1
					},
					"indices":5
				}
			]
		}
	],
	"accessors":[
		{
			"bufferView":0,
			"componentType":5126,
			"count":12,
			"max":[
				2,
				1,
				0
			],
			"min":[
				-2,
				0,
				0
			],
			"type":"VEC3"
		},
		{
			"bufferView":1,
			"componentType":5126,
			"count":12,
			"type":"VEC2"
		},
		{
			"bufferView":2,
			"componentType":5123,
			"count":3,
			"type":"SCALAR"
		},
		{
			"bufferView":3,
			"componentType":5123,
			"count":3,
			"type":"SCALAR"
		},
		{
			"bufferView":4,
			"componentType":5125,
			"count":3,
			"type":"SCALAR"
		},
		{
			"bufferView":5,
			"componentType":5125,
			"count":3,
			"type":"SCALAR"
		}
	],
	"bufferViews":[
		{
			"buffer":0,
			"byteLength":144,
			"byteOffset":0,
			"target":34962
		},
		{
			"buffer":0,
			"byteLength":96,
			"byteOffset":144,
			"target":34962
		},
		{
			"buffer":0,
			"byteLength":6,
			"byteOffset":240,
			"target":34963
		},
		{
			"buffer":0,
			"byteLength":6,
			"byteOffset":246,
			"target":34963
		},
		{
			"buffer":0,
			"byteLength":12,
			"byteOffset":252,
			"target":34963
		},
		{
			"buffer":0,
			"byteLength":12,
			"byteOffset":264,
			"target":34963
		}
	],
	"buffers":[
		{
			"byteLength":276,
			"uri":"SubMeshIndexFormats.bin"
		}
	]
}
