{
	"asset":{
		"copyright":"© 2025 Unity Technologies and the glTFast authors. Licensed under Apache 2.0. See license file at root.",
		"generator":"Khronos glTF Blender I/O v4.4.55",
		"version":"2.0"
	},
	"scene":0,
	"scenes":[
		{
			"name":"NodeLevel",
			"nodes":[
				0,
				1,
				2
			]
		},
		{
			"name":"MeshLevel",
			"nodes":[
				3,
				1,
				2
			]
		}
	],
	"nodes":[
		{
			"mesh":0,
			"name":"Plane",
			"weights":[
				0,
				1
			]
		},
		{
			"mesh":1,
			"name":"Icosphere",
			"translation":[
				0,
				2,
				1
			]
		},
		{
			"mesh":2,
			"name":"Icosphere.001",
			"translation":[
				0,
				2,
				-1
			]
		},
		{
			"mesh":0,
			"name":"PlaneDefault"
		}
	],
	"materials":[
		{
			"doubleSided":true,
			"name":"Red",
			"pbrMetallicRoughness":{
				"baseColorFactor":[
					0.8002434968948364,
					0.001479986240155995,
					0,
					1
				],
				"metallicFactor":0,
				"roughnessFactor":0.5
			}
		},
		{
			"doubleSided":true,
			"name":"Green",
			"pbrMetallicRoughness":{
				"baseColorFactor":[
					0.021423643454909325,
					0.8002825975418091,
					0.024202527478337288,
					1
				],
				"metallicFactor":0,
				"roughnessFactor":0.5
			}
		},
		{
			"doubleSided":true,
			"name":"Arrow"
		}
	],
	"meshes":[
		{
			"extras":{
				"targetNames":[
					"Red",
					"Green"
				]
			},
			"name":"Plane",
			"primitives":[
				{
					"attributes":{
						"POSITION":0,
						"NORMAL":1,
						"TEXCOORD_0":2
					},
					"indices":3,
					"targets":[
						{
							"POSITION":4,
							"NORMAL":5
						},
						{
							"POSITION":6,
							"NORMAL":7
						}
					],
					"material":2
				}
			],
			"weights":[
				1,
				0
			]
		},
		{
			"name":"Icosphere",
			"primitives":[
				{
					"attributes":{
						"POSITION":8,
						"NORMAL":9,
						"TEXCOORD_0":10
					},
					"indices":11,
					"material":0
				}
			]
		},
		{
			"name":"Icosphere",
			"primitives":[
				{
					"attributes":{
						"POSITION":8,
						"NORMAL":9,
						"TEXCOORD_0":10
					},
					"indices":11,
					"material":1
				}
			]
		}
	],
	"accessors":[
		{
			"bufferView":0,
			"componentType":5126,
			"count":3,
			"max":[
				0,
				1,
				0.5
			],
			"min":[
				0,
				0,
				-0.5
			],
			"type":"VEC3"
		},
		{
			"bufferView":1,
			"componentType":5126,
			"count":3,
			"type":"VEC3"
		},
		{
			"bufferView":2,
			"componentType":5126,
			"count":3,
			"type":"VEC2"
		},
		{
			"bufferView":3,
			"componentType":5123,
			"count":3,
			"type":"SCALAR"
		},
		{
			"bufferView":4,
			"componentType":5126,
			"count":3,
			"max":[
				2.980131370796974e-16,
				1.3048580884933472,
				0.9168505668640137
			],
			"min":[
				1.6085597713678512e-16,
				0.765968918800354,
				0.299149751663208
			],
			"type":"VEC3"
		},
		{
			"componentType":5126,
			"count":3,
			"type":"VEC3"
		},
		{
			"bufferView":5,
			"componentType":5126,
			"count":3,
			"max":[
				2.601713842957399e-16,
				1.230724811553955,
				-0.4065585136413574
			],
			"min":[
				1.419152219403255e-16,
				0.7576383352279663,
				-0.9391369223594666
			],
			"type":"VEC3"
		},
		{
			"componentType":5126,
			"count":3,
			"type":"VEC3"
		},
		{
			"bufferView":6,
			"componentType":5126,
			"count":63,
			"max":[
				0.12493139505386353,
				0.1313604712486267,
				0.1313604712486267
			],
			"min":[
				-0.12493139505386353,
				-0.1313604712486267,
				-0.1313604712486267
			],
			"type":"VEC3"
		},
		{
			"bufferView":7,
			"componentType":5126,
			"count":63,
			"type":"VEC3"
		},
		{
			"bufferView":8,
			"componentType":5126,
			"count":63,
			"type":"VEC2"
		},
		{
			"bufferView":9,
			"componentType":5123,
			"count":240,
			"type":"SCALAR"
		}
	],
	"bufferViews":[
		{
			"buffer":0,
			"byteLength":36,
			"byteOffset":0,
			"target":34962
		},
		{
			"buffer":0,
			"byteLength":36,
			"byteOffset":36,
			"target":34962
		},
		{
			"buffer":0,
			"byteLength":24,
			"byteOffset":72,
			"target":34962
		},
		{
			"buffer":0,
			"byteLength":6,
			"byteOffset":96,
			"target":34963
		},
		{
			"buffer":0,
			"byteLength":36,
			"byteOffset":104,
			"target":34962
		},
		{
			"buffer":0,
			"byteLength":36,
			"byteOffset":140,
			"target":34962
		},
		{
			"buffer":0,
			"byteLength":756,
			"byteOffset":176,
			"target":34962
		},
		{
			"buffer":0,
			"byteLength":756,
			"byteOffset":932,
			"target":34962
		},
		{
			"buffer":0,
			"byteLength":504,
			"byteOffset":1688,
			"target":34962
		},
		{
			"buffer":0,
			"byteLength":480,
			"byteOffset":2192,
			"target":34963
		}
	],
	"buffers":[
		{
			"byteLength":2672,
			"uri":"NodeLevelMorphTargetWeights.bin"
		}
	]
}
