{
	"asset":{
		"copyright":"© 2024 Unity Technologies and the glTFast authors. Licensed under Apache 2.0. See license file at root.",
		"generator":"Khronos glTF Blender I/O v4.1.63",
		"version":"2.0"
	},
	"scene":0,
	"scenes":[
		{
			"name":"Scene",
			"nodes":[
				5
			]
		}
	],
	"nodes":[
		{
			"name":"Bone.001",
			"translation":[
				0,
				0.2500000298023224,
				0
			]
		},
		{
			"children":[
				0
			],
			"name":"Bone.002",
			"translation":[
				0,
				0.2499999850988388,
				0
			]
		},
		{
			"children":[
				1
			],
			"name":"Bone.003",
			"translation":[
				0,
				0.2499999850988388,
				0
			]
		},
		{
			"children":[
				2
			],
			"name":"Bone"
		},
		{
			"mesh":0,
			"name":"Cube.001",
			"skin":0
		},
		{
			"children":[
				4,
				3
			],
			"name":"Armature"
		}
	],
	"animations":[
		{
			"channels":[
				{
					"sampler":0,
					"target":{
						"node":3,
						"path":"translation"
					}
				},
				{
					"sampler":1,
					"target":{
						"node":3,
						"path":"rotation"
					}
				},
				{
					"sampler":2,
					"target":{
						"node":3,
						"path":"scale"
					}
				},
				{
					"sampler":3,
					"target":{
						"node":2,
						"path":"translation"
					}
				},
				{
					"sampler":4,
					"target":{
						"node":2,
						"path":"rotation"
					}
				},
				{
					"sampler":5,
					"target":{
						"node":2,
						"path":"scale"
					}
				},
				{
					"sampler":6,
					"target":{
						"node":1,
						"path":"translation"
					}
				},
				{
					"sampler":7,
					"target":{
						"node":1,
						"path":"rotation"
					}
				},
				{
					"sampler":8,
					"target":{
						"node":1,
						"path":"scale"
					}
				},
				{
					"sampler":9,
					"target":{
						"node":0,
						"path":"translation"
					}
				},
				{
					"sampler":10,
					"target":{
						"node":0,
						"path":"rotation"
					}
				},
				{
					"sampler":11,
					"target":{
						"node":0,
						"path":"scale"
					}
				},
				{
					"sampler":12,
					"target":{
						"node":4,
						"path":"weights"
					}
				}
			],
			"name":"Animation",
			"samplers":[
				{
					"input":13,
					"interpolation":"STEP",
					"output":14
				},
				{
					"input":15,
					"interpolation":"LINEAR",
					"output":16
				},
				{
					"input":15,
					"interpolation":"LINEAR",
					"output":17
				},
				{
					"input":13,
					"interpolation":"STEP",
					"output":18
				},
				{
					"input":15,
					"interpolation":"LINEAR",
					"output":19
				},
				{
					"input":13,
					"interpolation":"STEP",
					"output":20
				},
				{
					"input":13,
					"interpolation":"STEP",
					"output":21
				},
				{
					"input":15,
					"interpolation":"LINEAR",
					"output":22
				},
				{
					"input":13,
					"interpolation":"STEP",
					"output":23
				},
				{
					"input":13,
					"interpolation":"STEP",
					"output":24
				},
				{
					"input":15,
					"interpolation":"LINEAR",
					"output":25
				},
				{
					"input":13,
					"interpolation":"STEP",
					"output":26
				},
				{
					"input":15,
					"interpolation":"LINEAR",
					"output":27
				}
			]
		}
	],
	"materials":[
		{
			"doubleSided":true,
			"name":"Material",
			"pbrMetallicRoughness":{
				"metallicFactor":0,
				"roughnessFactor":0.5
			}
		}
	],
	"meshes":[
		{
			"extras":{
				"targetNames":[
					"Slim",
					"SparseTest"
				]
			},
			"name":"Cube.001",
			"primitives":[
				{
					"attributes":{
						"POSITION":0,
						"NORMAL":1,
						"TEXCOORD_0":2,
						"TANGENT":3,
						"COLOR_0":4,
						"JOINTS_0":5,
						"WEIGHTS_0":6
					},
					"indices":7,
					"material":0,
					"targets":[
						{
							"POSITION":8,
							"NORMAL":9
						},
						{
							"POSITION":10,
							"NORMAL":11
						}
					]
				}
			],
			"weights":[
				0,
				0
			]
		}
	],
	"skins":[
		{
			"inverseBindMatrices":12,
			"joints":[
				3,
				2,
				1,
				0
			],
			"name":"Armature"
		}
	],
	"accessors":[
		{
			"bufferView":0,
			"componentType":5126,
			"count":72,
			"max":[
				0.19999998807907104,
				1,
				0.19999998807907104
			],
			"min":[
				-0.19999998807907104,
				0,
				-0.19999998807907104
			],
			"type":"VEC3"
		},
		{
			"bufferView":1,
			"componentType":5126,
			"count":72,
			"type":"VEC3"
		},
		{
			"bufferView":2,
			"componentType":5126,
			"count":72,
			"type":"VEC2"
		},
		{
			"bufferView":3,
			"componentType":5126,
			"count":72,
			"type":"VEC4"
		},
		{
			"bufferView":4,
			"componentType":5126,
			"count":72,
			"type":"VEC3"
		},
		{
			"bufferView":5,
			"componentType":5121,
			"count":72,
			"type":"VEC4"
		},
		{
			"bufferView":6,
			"componentType":5126,
			"count":72,
			"type":"VEC4"
		},
		{
			"bufferView":7,
			"componentType":5123,
			"count":108,
			"type":"SCALAR"
		},
		{
			"componentType":5126,
			"count":72,
			"max":[
				0.17426767945289612,
				0,
				0.17426767945289612
			],
			"min":[
				-0.17426767945289612,
				0,
				-0.17426767945289612
			],
			"sparse":{
				"count":48,
				"indices":{
					"bufferView":8,
					"componentType":5121
				},
				"values":{
					"bufferView":9
				}
			},
			"type":"VEC3"
		},
		{
			"bufferView":10,
			"componentType":5126,
			"count":72,
			"type":"VEC3"
		},
		{
			"componentType":5126,
			"count":72,
			"max":[
				0.324840247631073,
				0,
				0
			],
			"min":[
				0,
				0,
				0
			],
			"sparse":{
				"count":8,
				"indices":{
					"bufferView":11,
					"componentType":5121
				},
				"values":{
					"bufferView":12
				}
			},
			"type":"VEC3"
		},
		{
			"componentType":5126,
			"count":72,
			"sparse":{
				"count":8,
				"indices":{
					"bufferView":13,
					"componentType":5121
				},
				"values":{
					"bufferView":14
				}
			},
			"type":"VEC3"
		},
		{
			"bufferView":15,
			"componentType":5126,
			"count":4,
			"type":"MAT4"
		},
		{
			"bufferView":16,
			"componentType":5126,
			"count":2,
			"max":[
				1.0416666666666667
			],
			"min":[
				0.041666666666666664
			],
			"type":"SCALAR"
		},
		{
			"bufferView":17,
			"componentType":5126,
			"count":2,
			"type":"VEC3"
		},
		{
			"bufferView":18,
			"componentType":5126,
			"count":25,
			"max":[
				1.0416666666666667
			],
			"min":[
				0.041666666666666664
			],
			"type":"SCALAR"
		},
		{
			"bufferView":19,
			"componentType":5126,
			"count":25,
			"type":"VEC4"
		},
		{
			"bufferView":20,
			"componentType":5126,
			"count":25,
			"type":"VEC3"
		},
		{
			"bufferView":21,
			"componentType":5126,
			"count":2,
			"type":"VEC3"
		},
		{
			"bufferView":22,
			"componentType":5126,
			"count":25,
			"type":"VEC4"
		},
		{
			"bufferView":23,
			"componentType":5126,
			"count":2,
			"type":"VEC3"
		},
		{
			"bufferView":24,
			"componentType":5126,
			"count":2,
			"type":"VEC3"
		},
		{
			"bufferView":25,
			"componentType":5126,
			"count":25,
			"type":"VEC4"
		},
		{
			"bufferView":26,
			"componentType":5126,
			"count":2,
			"type":"VEC3"
		},
		{
			"bufferView":27,
			"componentType":5126,
			"count":2,
			"type":"VEC3"
		},
		{
			"bufferView":28,
			"componentType":5126,
			"count":25,
			"type":"VEC4"
		},
		{
			"bufferView":29,
			"componentType":5126,
			"count":2,
			"type":"VEC3"
		},
		{
			"bufferView":30,
			"componentType":5126,
			"count":50,
			"type":"SCALAR"
		}
	],
	"bufferViews":[
		{
			"buffer":0,
			"byteLength":864,
			"byteOffset":0,
			"target":34962
		},
		{
			"buffer":0,
			"byteLength":864,
			"byteOffset":864,
			"target":34962
		},
		{
			"buffer":0,
			"byteLength":576,
			"byteOffset":1728,
			"target":34962
		},
		{
			"buffer":0,
			"byteLength":1152,
			"byteOffset":2304,
			"target":34962
		},
		{
			"buffer":0,
			"byteLength":864,
			"byteOffset":3456,
			"target":34962
		},
		{
			"buffer":0,
			"byteLength":288,
			"byteOffset":4320,
			"target":34962
		},
		{
			"buffer":0,
			"byteLength":1152,
			"byteOffset":4608,
			"target":34962
		},
		{
			"buffer":0,
			"byteLength":216,
			"byteOffset":5760,
			"target":34963
		},
		{
			"buffer":0,
			"byteLength":48,
			"byteOffset":5976
		},
		{
			"buffer":0,
			"byteLength":576,
			"byteOffset":6024
		},
		{
			"buffer":0,
			"byteLength":864,
			"byteOffset":6600,
			"target":34962
		},
		{
			"buffer":0,
			"byteLength":8,
			"byteOffset":7464
		},
		{
			"buffer":0,
			"byteLength":96,
			"byteOffset":7472
		},
		{
			"buffer":0,
			"byteLength":8,
			"byteOffset":7568
		},
		{
			"buffer":0,
			"byteLength":96,
			"byteOffset":7576
		},
		{
			"buffer":0,
			"byteLength":256,
			"byteOffset":7672
		},
		{
			"buffer":0,
			"byteLength":8,
			"byteOffset":7928
		},
		{
			"buffer":0,
			"byteLength":24,
			"byteOffset":7936
		},
		{
			"buffer":0,
			"byteLength":100,
			"byteOffset":7960
		},
		{
			"buffer":0,
			"byteLength":400,
			"byteOffset":8060
		},
		{
			"buffer":0,
			"byteLength":300,
			"byteOffset":8460
		},
		{
			"buffer":0,
			"byteLength":24,
			"byteOffset":8760
		},
		{
			"buffer":0,
			"byteLength":400,
			"byteOffset":8784
		},
		{
			"buffer":0,
			"byteLength":24,
			"byteOffset":9184
		},
		{
			"buffer":0,
			"byteLength":24,
			"byteOffset":9208
		},
		{
			"buffer":0,
			"byteLength":400,
			"byteOffset":9232
		},
		{
			"buffer":0,
			"byteLength":24,
			"byteOffset":9632
		},
		{
			"buffer":0,
			"byteLength":24,
			"byteOffset":9656
		},
		{
			"buffer":0,
			"byteLength":400,
			"byteOffset":9680
		},
		{
			"buffer":0,
			"byteLength":24,
			"byteOffset":10080
		},
		{
			"buffer":0,
			"byteLength":200,
			"byteOffset":10104
		}
	],
	"buffers":[
		{
			"byteLength":10304,
			"uri":"RainbowCuboid.bin"
		}
	]
}
