{
	"asset":{
        "copyright":"© 2024 Unity Technologies and the glTFast authors. Licensed under Apache 2.0. See license file at root.",
		"generator":"Khronos glTF Blender I/O v4.5.48",
		"version":"2.0"
	},
	"scene":0,
	"scenes":[
		{
			"name":"Scene",
			"nodes":[
				6
			]
		}
	],
	"nodes":[
		{
			"name":"Cube.001"
		},
		{
			"name":"Bone.001",
			"rotation":[
				-5.065247707218296e-15,
				5.329070518200751e-15,
				-2.4725834070016484e-22,
				1
			],
			"translation":[
				1.2553553792452676e-22,
				0.2499999701976776,
				-1.7763568394002505e-15
			]
		},
		{
			"children":[
				1
			],
			"name":"Bone.002",
			"rotation":[
				5.460981923691979e-15,
				-5.329070518200751e-15,
				1.4644097037983326e-22,
				1
			],
			"translation":[
				-3.0401052145647694e-23,
				0.24999995529651642,
				8.881784197001252e-16
			]
		},
		{
			"children":[
				2
			],
			"name":"Bone.003",
			"rotation":[
				-1.644445222150786e-15,
				1.7763568394002505e-15,
				-4.900828350399934e-23,
				1
			],
			"translation":[
				0,
				0.24999995529651642,
				0
			]
		},
		{
			"children":[
				3
			],
			"name":"Bone",
			"rotation":[
				-8.557136332854043e-09,
				1.7114272665708086e-08,
				-2.928983286277023e-16,
				1
			]
		},
		{
			"mesh":0,
			"name":"Cube.002",
			"skin":0
		},
		{
			"children":[
				0,
				5,
				4
			],
			"name":"Armature"
		}
	],
	"animations":[
		{
			"channels":[
				{
					"sampler":0,
					"target":{
						"node":4,
						"path":"translation"
					}
				},
				{
					"sampler":1,
					"target":{
						"node":4,
						"path":"rotation"
					}
				},
				{
					"sampler":2,
					"target":{
						"node":4,
						"path":"scale"
					}
				},
				{
					"sampler":3,
					"target":{
						"node":3,
						"path":"translation"
					}
				},
				{
					"sampler":4,
					"target":{
						"node":3,
						"path":"rotation"
					}
				},
				{
					"sampler":5,
					"target":{
						"node":3,
						"path":"scale"
					}
				},
				{
					"sampler":6,
					"target":{
						"node":2,
						"path":"translation"
					}
				},
				{
					"sampler":7,
					"target":{
						"node":2,
						"path":"rotation"
					}
				},
				{
					"sampler":8,
					"target":{
						"node":2,
						"path":"scale"
					}
				},
				{
					"sampler":9,
					"target":{
						"node":1,
						"path":"translation"
					}
				},
				{
					"sampler":10,
					"target":{
						"node":1,
						"path":"rotation"
					}
				},
				{
					"sampler":11,
					"target":{
						"node":1,
						"path":"scale"
					}
				},
				{
					"sampler":12,
					"target":{
						"node":5,
						"path":"weights"
					}
				}
			],
			"name":"Animation",
			"samplers":[
				{
					"input":23,
					"interpolation":"STEP",
					"output":24
				},
				{
					"input":25,
					"interpolation":"LINEAR",
					"output":26
				},
				{
					"input":25,
					"interpolation":"LINEAR",
					"output":27
				},
				{
					"input":23,
					"interpolation":"STEP",
					"output":28
				},
				{
					"input":25,
					"interpolation":"LINEAR",
					"output":29
				},
				{
					"input":23,
					"interpolation":"STEP",
					"output":30
				},
				{
					"input":23,
					"interpolation":"STEP",
					"output":31
				},
				{
					"input":25,
					"interpolation":"LINEAR",
					"output":32
				},
				{
					"input":23,
					"interpolation":"STEP",
					"output":30
				},
				{
					"input":23,
					"interpolation":"STEP",
					"output":33
				},
				{
					"input":25,
					"interpolation":"LINEAR",
					"output":34
				},
				{
					"input":23,
					"interpolation":"STEP",
					"output":30
				},
				{
					"input":25,
					"interpolation":"LINEAR",
					"output":35
				}
			]
		}
	],
	"materials":[
		{
			"doubleSided":true,
			"name":"Material1",
			"pbrMetallicRoughness":{
				"metallicFactor":0,
				"roughnessFactor":0.5
			}
		},
		{
			"doubleSided":true,
			"name":"Material2",
			"pbrMetallicRoughness":{
				"metallicFactor":0,
				"roughnessFactor":0.5
			}
		}
	],
	"meshes":[
		{
			"extras":{
				"targetNames":[
					"Slim",
					"SparseTest"
				]
			},
			"name":"Cube.001",
			"primitives":[
				{
					"attributes":{
						"POSITION":0,
						"NORMAL":1,
						"TEXCOORD_0":2,
						"COLOR_0":3,
						"JOINTS_0":4,
						"WEIGHTS_0":5
					},
					"indices":6,
					"material":0,
					"targets":[
						{
							"POSITION":7,
							"NORMAL":8
						},
						{
							"POSITION":9,
							"NORMAL":10
						}
					]
				},
				{
					"attributes":{
						"POSITION":11,
						"NORMAL":12,
						"TEXCOORD_0":13,
						"COLOR_0":14,
						"JOINTS_0":15,
						"WEIGHTS_0":16
					},
					"indices":17,
					"material":1,
					"targets":[
						{
							"POSITION":18,
							"NORMAL":19
						},
						{
							"POSITION":20,
							"NORMAL":21
						}
					]
				}
			],
			"weights":[
				0,
				0
			]
		}
	],
	"skins":[
		{
			"inverseBindMatrices":22,
			"joints":[
				4,
				3,
				2,
				1
			],
			"name":"Armature"
		}
	],
	"accessors":[
		{
			"bufferView":0,
			"componentType":5126,
			"count":38,
			"max":[
				0.19999998807907104,
				1,
				0.19999998807907104
			],
			"min":[
				-0.19999998807907104,
				0,
				-0.19999998807907104
			],
			"type":"VEC3"
		},
		{
			"bufferView":1,
			"componentType":5126,
			"count":38,
			"type":"VEC3"
		},
		{
			"bufferView":2,
			"componentType":5126,
			"count":38,
			"type":"VEC2"
		},
		{
			"bufferView":3,
			"componentType":5126,
			"count":38,
			"type":"VEC3"
		},
		{
			"bufferView":4,
			"componentType":5121,
			"count":38,
			"type":"VEC4"
		},
		{
			"bufferView":5,
			"componentType":5126,
			"count":38,
			"type":"VEC4"
		},
		{
			"bufferView":6,
			"componentType":5123,
			"count":54,
			"type":"SCALAR"
		},
		{
			"bufferView":7,
			"componentType":5126,
			"count":38,
			"max":[
				0.17426767945289612,
				0,
				0.17426767945289612
			],
			"min":[
				-0.17426767945289612,
				0,
				-0.17426767945289612
			],
			"type":"VEC3"
		},
		{
			"bufferView":8,
			"componentType":5126,
			"count":38,
			"type":"VEC3"
		},
		{
			"componentType":5126,
			"count":38,
			"max":[
				0.324840247631073,
				0,
				0
			],
			"min":[
				0,
				0,
				0
			],
			"sparse":{
				"count":2,
				"indices":{
					"bufferView":9,
					"componentType":5121
				},
				"values":{
					"bufferView":10
				}
			},
			"type":"VEC3"
		},
		{
			"componentType":5126,
			"count":38,
			"sparse":{
				"count":1,
				"indices":{
					"bufferView":11,
					"componentType":5121
				},
				"values":{
					"bufferView":12
				}
			},
			"type":"VEC3"
		},
		{
			"bufferView":13,
			"componentType":5126,
			"count":38,
			"max":[
				0.19999998807907104,
				1,
				0.19999998807907104
			],
			"min":[
				-0.19999998807907104,
				0,
				-0.19999998807907104
			],
			"type":"VEC3"
		},
		{
			"bufferView":14,
			"componentType":5126,
			"count":38,
			"type":"VEC3"
		},
		{
			"bufferView":15,
			"componentType":5126,
			"count":38,
			"type":"VEC2"
		},
		{
			"bufferView":16,
			"componentType":5126,
			"count":38,
			"type":"VEC3"
		},
		{
			"bufferView":17,
			"componentType":5121,
			"count":38,
			"type":"VEC4"
		},
		{
			"bufferView":18,
			"componentType":5126,
			"count":38,
			"type":"VEC4"
		},
		{
			"bufferView":19,
			"componentType":5123,
			"count":54,
			"type":"SCALAR"
		},
		{
			"bufferView":20,
			"componentType":5126,
			"count":38,
			"max":[
				0.17426767945289612,
				0,
				0.17426767945289612
			],
			"min":[
				-0.17426767945289612,
				0,
				-0.17426767945289612
			],
			"type":"VEC3"
		},
		{
			"bufferView":21,
			"componentType":5126,
			"count":38,
			"type":"VEC3"
		},
		{
			"componentType":5126,
			"count":38,
			"max":[
				0.324840247631073,
				0,
				0
			],
			"min":[
				0,
				0,
				0
			],
			"sparse":{
				"count":6,
				"indices":{
					"bufferView":22,
					"componentType":5121
				},
				"values":{
					"bufferView":23
				}
			},
			"type":"VEC3"
		},
		{
			"componentType":5126,
			"count":38,
			"sparse":{
				"count":8,
				"indices":{
					"bufferView":24,
					"componentType":5121
				},
				"values":{
					"bufferView":25
				}
			},
			"type":"VEC3"
		},
		{
			"bufferView":26,
			"componentType":5126,
			"count":4,
			"type":"MAT4"
		},
		{
			"bufferView":27,
			"componentType":5126,
			"count":2,
			"max":[
				1.0416666666666667
			],
			"min":[
				0.041666666666666664
			],
			"type":"SCALAR"
		},
		{
			"bufferView":28,
			"componentType":5126,
			"count":2,
			"type":"VEC3"
		},
		{
			"bufferView":29,
			"componentType":5126,
			"count":25,
			"max":[
				1.0416666666666667
			],
			"min":[
				0.041666666666666664
			],
			"type":"SCALAR"
		},
		{
			"bufferView":30,
			"componentType":5126,
			"count":25,
			"type":"VEC4"
		},
		{
			"bufferView":31,
			"componentType":5126,
			"count":25,
			"type":"VEC3"
		},
		{
			"bufferView":32,
			"componentType":5126,
			"count":2,
			"type":"VEC3"
		},
		{
			"bufferView":33,
			"componentType":5126,
			"count":25,
			"type":"VEC4"
		},
		{
			"bufferView":34,
			"componentType":5126,
			"count":2,
			"type":"VEC3"
		},
		{
			"bufferView":35,
			"componentType":5126,
			"count":2,
			"type":"VEC3"
		},
		{
			"bufferView":36,
			"componentType":5126,
			"count":25,
			"type":"VEC4"
		},
		{
			"bufferView":37,
			"componentType":5126,
			"count":2,
			"type":"VEC3"
		},
		{
			"bufferView":38,
			"componentType":5126,
			"count":25,
			"type":"VEC4"
		},
		{
			"bufferView":39,
			"componentType":5126,
			"count":50,
			"type":"SCALAR"
		}
	],
	"bufferViews":[
		{
			"buffer":0,
			"byteLength":456,
			"byteOffset":0,
			"target":34962
		},
		{
			"buffer":0,
			"byteLength":456,
			"byteOffset":456,
			"target":34962
		},
		{
			"buffer":0,
			"byteLength":304,
			"byteOffset":912,
			"target":34962
		},
		{
			"buffer":0,
			"byteLength":456,
			"byteOffset":1216,
			"target":34962
		},
		{
			"buffer":0,
			"byteLength":152,
			"byteOffset":1672,
			"target":34962
		},
		{
			"buffer":0,
			"byteLength":608,
			"byteOffset":1824,
			"target":34962
		},
		{
			"buffer":0,
			"byteLength":108,
			"byteOffset":2432,
			"target":34963
		},
		{
			"buffer":0,
			"byteLength":456,
			"byteOffset":2540,
			"target":34962
		},
		{
			"buffer":0,
			"byteLength":456,
			"byteOffset":2996,
			"target":34962
		},
		{
			"buffer":0,
			"byteLength":2,
			"byteOffset":3452
		},
		{
			"buffer":0,
			"byteLength":24,
			"byteOffset":3456
		},
		{
			"buffer":0,
			"byteLength":1,
			"byteOffset":3480
		},
		{
			"buffer":0,
			"byteLength":12,
			"byteOffset":3484
		},
		{
			"buffer":0,
			"byteLength":456,
			"byteOffset":3496,
			"target":34962
		},
		{
			"buffer":0,
			"byteLength":456,
			"byteOffset":3952,
			"target":34962
		},
		{
			"buffer":0,
			"byteLength":304,
			"byteOffset":4408,
			"target":34962
		},
		{
			"buffer":0,
			"byteLength":456,
			"byteOffset":4712,
			"target":34962
		},
		{
			"buffer":0,
			"byteLength":152,
			"byteOffset":5168,
			"target":34962
		},
		{
			"buffer":0,
			"byteLength":608,
			"byteOffset":5320,
			"target":34962
		},
		{
			"buffer":0,
			"byteLength":108,
			"byteOffset":5928,
			"target":34963
		},
		{
			"buffer":0,
			"byteLength":456,
			"byteOffset":6036,
			"target":34962
		},
		{
			"buffer":0,
			"byteLength":456,
			"byteOffset":6492,
			"target":34962
		},
		{
			"buffer":0,
			"byteLength":6,
			"byteOffset":6948
		},
		{
			"buffer":0,
			"byteLength":72,
			"byteOffset":6956
		},
		{
			"buffer":0,
			"byteLength":8,
			"byteOffset":7028
		},
		{
			"buffer":0,
			"byteLength":96,
			"byteOffset":7036
		},
		{
			"buffer":0,
			"byteLength":256,
			"byteOffset":7132
		},
		{
			"buffer":0,
			"byteLength":8,
			"byteOffset":7388
		},
		{
			"buffer":0,
			"byteLength":24,
			"byteOffset":7396
		},
		{
			"buffer":0,
			"byteLength":100,
			"byteOffset":7420
		},
		{
			"buffer":0,
			"byteLength":400,
			"byteOffset":7520
		},
		{
			"buffer":0,
			"byteLength":300,
			"byteOffset":7920
		},
		{
			"buffer":0,
			"byteLength":24,
			"byteOffset":8220
		},
		{
			"buffer":0,
			"byteLength":400,
			"byteOffset":8244
		},
		{
			"buffer":0,
			"byteLength":24,
			"byteOffset":8644
		},
		{
			"buffer":0,
			"byteLength":24,
			"byteOffset":8668
		},
		{
			"buffer":0,
			"byteLength":400,
			"byteOffset":8692
		},
		{
			"buffer":0,
			"byteLength":24,
			"byteOffset":9092
		},
		{
			"buffer":0,
			"byteLength":400,
			"byteOffset":9116
		},
		{
			"buffer":0,
			"byteLength":200,
			"byteOffset":9516
		}
	],
	"buffers":[
		{
			"byteLength":9716,
			"uri":"RainbowCuboidSubMesh.bin"
		}
	]
}
