{"asset":{"copyright":"© 2024 Unity Technologies and the glTFast authors. Licensed under Apache 2.0. See license file at root.","version":"2.0","generator":"gltfpack 0.25"},"extensionsUsed":["KHR_mesh_quantization","EXT_meshopt_compression"],"extensionsRequired":["KHR_mesh_quantization","EXT_meshopt_compression"],"buffers":[{"uri":"RainbowCuboid-meshopt-cc.bin","byteLength":1744},{"byteLength":4264,"extensions":{"EXT_meshopt_compression":{"fallback":true}}}],"bufferViews":[{"buffer":1,"byteOffset":0,"byteLength":1152,"byteStride":8,"target":34962,"extensions":{"EXT_meshopt_compression":{"buffer":0,"byteOffset":0,"byteLength":449,"byteStride":8,"mode":"ATTRIBUTES","count":144}}},{"buffer":1,"byteOffset":1152,"byteLength":192,"byteStride":4,"target":34962,"extensions":{"EXT_meshopt_compression":{"buffer":0,"byteOffset":452,"byteLength":63,"byteStride":4,"mode":"ATTRIBUTES","filter":"OCTAHEDRAL","count":48}}},{"buffer":1,"byteOffset":1344,"byteLength":192,"byteStride":4,"target":34962,"extensions":{"EXT_meshopt_compression":{"buffer":0,"byteOffset":516,"byteLength":118,"byteStride":4,"mode":"ATTRIBUTES","count":48}}},{"buffer":1,"byteOffset":1536,"byteLength":192,"byteStride":4,"target":34962,"extensions":{"EXT_meshopt_compression":{"buffer":0,"byteOffset":636,"byteLength":113,"byteStride":4,"mode":"ATTRIBUTES","count":48}}},{"buffer":1,"byteOffset":1728,"byteLength":192,"byteStride":4,"target":34962,"extensions":{"EXT_meshopt_compression":{"buffer":0,"byteOffset":752,"byteLength":167,"byteStride":4,"mode":"ATTRIBUTES","count":48}}},{"buffer":1,"byteOffset":1920,"byteLength":384,"byteStride":4,"target":34962,"extensions":{"EXT_meshopt_compression":{"buffer":0,"byteOffset":920,"byteLength":112,"byteStride":4,"mode":"ATTRIBUTES","count":96}}},{"buffer":1,"byteOffset":2304,"byteLength":216,"target":34963,"extensions":{"EXT_meshopt_compression":{"buffer":0,"byteOffset":1032,"byteLength":53,"byteStride":2,"mode":"TRIANGLES","count":108}}},{"buffer":1,"byteOffset":2520,"byteLength":256,"extensions":{"EXT_meshopt_compression":{"buffer":0,"byteOffset":1088,"byteLength":149,"byteStride":64,"mode":"ATTRIBUTES","count":4}}},{"buffer":1,"byteOffset":2776,"byteLength":124,"extensions":{"EXT_meshopt_compression":{"buffer":0,"byteOffset":1240,"byteLength":137,"byteStride":4,"mode":"ATTRIBUTES","count":31}}},{"buffer":1,"byteOffset":2900,"byteLength":992,"extensions":{"EXT_meshopt_compression":{"buffer":0,"byteOffset":1380,"byteLength":209,"byteStride":8,"mode":"ATTRIBUTES","filter":"QUATERNION","count":124}}},{"buffer":1,"byteOffset":3892,"byteLength":372,"extensions":{"EXT_meshopt_compression":{"buffer":0,"byteOffset":1592,"byteLength":87,"byteStride":12,"mode":"ATTRIBUTES","filter":"EXPONENTIAL","count":31}}},{"buffer":0,"byteOffset":1680,"byteLength":62}],"accessors":[{"bufferView":0,"byteOffset":0,"componentType":5123,"count":48,"type":"VEC3","min":[5070,0,2720],"max":[11313,15608,8963]},{"bufferView":1,"byteOffset":0,"componentType":5120,"count":48,"type":"VEC3","normalized":true},{"bufferView":2,"byteOffset":0,"componentType":5121,"count":48,"type":"VEC4","normalized":true},{"bufferView":3,"byteOffset":0,"componentType":5121,"count":48,"type":"VEC4"},{"bufferView":4,"byteOffset":0,"componentType":5121,"count":48,"type":"VEC4","normalized":true},{"bufferView":0,"byteOffset":384,"componentType":5122,"count":48,"type":"VEC3","min":[-2720,0,-2720],"max":[2720,0,2720]},{"bufferView":5,"byteOffset":0,"componentType":5120,"count":48,"type":"VEC3","normalized":true},{"bufferView":0,"byteOffset":768,"componentType":5122,"count":48,"type":"VEC3","min":[0,0,0],"max":[5070,0,0]},{"bufferView":5,"byteOffset":192,"componentType":5120,"count":48,"type":"VEC3","normalized":true},{"bufferView":6,"byteOffset":0,"componentType":5123,"count":108,"type":"SCALAR"},{"bufferView":7,"byteOffset":0,"componentType":5126,"count":4,"type":"MAT4"},{"bufferView":8,"byteOffset":0,"componentType":5126,"count":31,"type":"SCALAR","min":[0.0416666679],"max":[1.04166675]},{"bufferView":9,"byteOffset":0,"componentType":5122,"count":31,"type":"VEC4","normalized":true},{"bufferView":10,"byteOffset":0,"componentType":5126,"count":31,"type":"VEC3"},{"bufferView":9,"byteOffset":248,"componentType":5122,"count":31,"type":"VEC4","normalized":true},{"bufferView":9,"byteOffset":496,"componentType":5122,"count":31,"type":"VEC4","normalized":true},{"bufferView":9,"byteOffset":744,"componentType":5122,"count":31,"type":"VEC4","normalized":true},{"bufferView":11,"byteOffset":0,"componentType":5121,"count":62,"type":"SCALAR","normalized":true}],"materials":[{"name":"Material","pbrMetallicRoughness":{"metallicFactor":0,"roughnessFactor":0.5},"doubleSided":true}],"meshes":[{"primitives":[{"attributes":{"POSITION":0,"NORMAL":1,"COLOR_0":2,"JOINTS_0":3,"WEIGHTS_0":4},"targets":[{"POSITION":5,"NORMAL":6},{"POSITION":7,"NORMAL":8}],"indices":9,"material":0}],"weights":[0,0],"extras":{"targetNames":["Slim","SparseTest"]}}],"skins":[{"name":"Armature","joints":[4,3,2,1],"inverseBindMatrices":10}],"animations":[{"name":"Animation","samplers":[{"input":11,"output":12},{"input":11,"output":13},{"input":11,"output":14},{"input":11,"output":15},{"input":11,"output":16},{"input":11,"output":17}],"channels":[{"sampler":0,"target":{"node":4,"path":"rotation"}},{"sampler":1,"target":{"node":4,"path":"scale"}},{"sampler":2,"target":{"node":3,"path":"rotation"}},{"sampler":3,"target":{"node":2,"path":"rotation"}},{"sampler":4,"target":{"node":1,"path":"rotation"}},{"sampler":5,"target":{"node":0,"path":"weights"}}]}],"nodes":[{"mesh":0,"skin":0,"translation":[-0.524840236,0,-0.374267668],"scale":[6.40713188e-05,6.40713188e-05,6.40713188e-05]},{"name":"Bone.001","translation":[0,0.25000003,0]},{"name":"Bone.002","translation":[0,0.249999985,0],"children":[1]},{"name":"Bone.003","translation":[0,0.249999985,0],"children":[2]},{"name":"Bone","children":[3]},{"name":"Cube.001","children":[0]},{"name":"Armature","children":[5,4]}],"scenes":[{"name":"Scene","nodes":[6]}],"scene":0}
