{
    "asset" : {
        "copyright" : "(c) 2022 Andreas Atteneder, CC BY 4.0.",
        "generator" : "Khronos glTF Blender I/O v3.3.32",
        "version" : "2.0"
    },
    "extensionsUsed" : [
        "KHR_materials_unlit"
    ],
    "scene" : 0,
    "scenes" : [
        {
            "name" : "Scene",
            "nodes" : [
                0,
                1,
                2,
                3,
                4,
                5,
                6,
                7,
                8,
                9,
                10
            ]
        }
    ],
    "nodes" : [
        {
            "mesh" : 0,
            "name" : "PointsUnlit"
        },
        {
            "mesh" : 1,
            "name" : "LinesUnlit",
            "translation" : [
                0,
                2,
                0
            ]
        },
        {
            "mesh" : 2,
            "name" : "PolygonsUnlit",
            "translation" : [
                0,
                4,
                0
            ]
        },
        {
            "mesh" : 3,
            "name" : "PointsShaded",
            "translation" : [
                2,
                0,
                0
            ]
        },
        {
            "mesh" : 4,
            "name" : "LinesShaded",
            "translation" : [
                2,
                2,
                0
            ]
        },
        {
            "mesh" : 5,
            "name" : "PolygonsShaded",
            "translation" : [
                2,
                4,
                0
            ]
        },
        {
            "mesh" : 6,
            "name" : "LinesShaded2",
            "translation" : [
                4,
                2,
                0
            ]
        },
        {
            "mesh" : 7,
            "name" : "PolygonsShaded2",
            "translation" : [
                4,
                4,
                0
            ]
        },
        {
            "mesh" : 8,
            "name" : "PointsNone",
            "translation" : [
                6,
                0,
                0
            ]
        },
        {
            "mesh" : 9,
            "name" : "LinesNone",
            "translation" : [
                6,
                2,
                0
            ]
        },
        {
            "mesh" : 10,
            "name" : "PolygonsNone",
            "translation" : [
                6,
                4,
                0
            ]
        }
    ],
    "materials" : [
        {
            "extensions" : {
                "KHR_materials_unlit" : {}
            },
            "name" : "Unlit",
            "pbrMetallicRoughness" : {
                "baseColorFactor" : [
                    0.5,
                    0.5,
                    0.5,
                    1
                ],
                "metallicFactor" : 0,
                "roughnessFactor" : 0.9
            }
        },
        {
            "name" : "Shaded",
            "pbrMetallicRoughness" : {
                "baseColorFactor" : [
                    0.5,
                    0.5,
                    0.5,
                    1
                ],
                "metallicFactor" : 0,
                "roughnessFactor" : 0.5
            }
        },
        {
            "name" : "Shaded2",
            "pbrMetallicRoughness" : {
                "baseColorFactor" : [
                    0.5,
                    0.5,
                    0.5,
                    1
                ],
                "metallicFactor" : 0,
                "roughnessFactor" : 0.5
            }
        }
    ],
    "meshes" : [
        {
            "name" : "Points",
            "primitives" : [
                {
                    "attributes" : {
                        "POSITION" : 0
                    },
                    "material" : 0,
                    "mode" : 0
                }
            ]
        },
        {
            "name" : "Lines",
            "primitives" : [
                {
                    "attributes" : {
                        "POSITION" : 1
                    },
                    "indices" : 2,
                    "material" : 0,
                    "mode" : 1
                }
            ]
        },
        {
            "name" : "Polygons",
            "primitives" : [
                {
                    "attributes" : {
                        "POSITION" : 3,
                        "NORMAL" : 4,
                        "TEXCOORD_0" : 5
                    },
                    "indices" : 6,
                    "material" : 0
                }
            ]
        },
        {
            "name" : "Points",
            "primitives" : [
                {
                    "attributes" : {
                        "POSITION" : 0
                    },
                    "material" : 1,
                    "mode" : 0
                }
            ]
        },
        {
            "name" : "Lines",
            "primitives" : [
                {
                    "attributes" : {
                        "POSITION" : 1
                    },
                    "indices" : 2,
                    "material" : 1,
                    "mode" : 1
                }
            ]
        },
        {
            "name" : "Polygons",
            "primitives" : [
                {
                    "attributes" : {
                        "POSITION" : 3,
                        "NORMAL" : 4,
                        "TEXCOORD_0" : 5
                    },
                    "indices" : 6,
                    "material" : 1
                }
            ]
        },
        {
            "name" : "Lines",
            "primitives" : [
                {
                    "attributes" : {
                        "POSITION" : 1
                    },
                    "indices" : 2,
                    "material" : 2,
                    "mode" : 1
                }
            ]
        },
        {
            "name" : "Polygons",
            "primitives" : [
                {
                    "attributes" : {
                        "POSITION" : 3,
                        "NORMAL" : 4,
                        "TEXCOORD_0" : 5
                    },
                    "indices" : 6,
                    "material" : 2
                }
            ]
        },
        {
            "name" : "Points",
            "primitives" : [
                {
                    "attributes" : {
                        "POSITION" : 0
                    },
                    "mode" : 0
                }
            ]
        },
        {
            "name" : "Lines",
            "primitives" : [
                {
                    "attributes" : {
                        "POSITION" : 1
                    },
                    "indices" : 2,
                    "mode" : 1
                }
            ]
        },
        {
            "name" : "Polygons",
            "primitives" : [
                {
                    "attributes" : {
                        "POSITION" : 3,
                        "NORMAL" : 4,
                        "TEXCOORD_0" : 5
                    },
                    "indices" : 6
                }
            ]
        }
    ],
    "accessors" : [
        {
            "bufferView" : 0,
            "componentType" : 5126,
            "count" : 114,
            "max" : [
                1,
                1,
                1.0000001192092896
            ],
            "min" : [
                -0.9999999403953552,
                -1,
                -0.9999998211860657
            ],
            "type" : "VEC3"
        },
        {
            "bufferView" : 1,
            "componentType" : 5126,
            "count" : 114,
            "max" : [
                1,
                1,
                1.0000001192092896
            ],
            "min" : [
                -0.9999999403953552,
                -1,
                -0.9999998211860657
            ],
            "type" : "VEC3"
        },
        {
            "bufferView" : 2,
            "componentType" : 5123,
            "count" : 288,
            "type" : "SCALAR"
        },
        {
            "bufferView" : 3,
            "componentType" : 5126,
            "count" : 480,
            "max" : [
                1,
                1,
                1
            ],
            "min" : [
                -0.9999999403953552,
                -1,
                -1
            ],
            "type" : "VEC3"
        },
        {
            "bufferView" : 4,
            "componentType" : 5126,
            "count" : 480,
            "type" : "VEC3"
        },
        {
            "bufferView" : 5,
            "componentType" : 5126,
            "count" : 480,
            "type" : "VEC2"
        },
        {
            "bufferView" : 6,
            "componentType" : 5123,
            "count" : 672,
            "type" : "SCALAR"
        }
    ],
    "bufferViews" : [
        {
            "buffer" : 0,
            "byteLength" : 1368,
            "byteOffset" : 0,
            "target" : 34962
        },
        {
            "buffer" : 0,
            "byteLength" : 1368,
            "byteOffset" : 1368,
            "target" : 34962
        },
        {
            "buffer" : 0,
            "byteLength" : 576,
            "byteOffset" : 2736,
            "target" : 34963
        },
        {
            "buffer" : 0,
            "byteLength" : 5760,
            "byteOffset" : 3312,
            "target" : 34962
        },
        {
            "buffer" : 0,
            "byteLength" : 5760,
            "byteOffset" : 9072,
            "target" : 34962
        },
        {
            "buffer" : 0,
            "byteLength" : 3840,
            "byteOffset" : 14832,
            "target" : 34962
        },
        {
            "buffer" : 0,
            "byteLength" : 1344,
            "byteOffset" : 18672,
            "target" : 34963
        }
    ],
    "buffers" : [
        {
            "byteLength" : 20016,
            "uri" : "PrimitiveModes.bin"
        }
    ]
}
