{
	"asset":{
		"copyright":"© 2024 Unity Technologies and the glTFast authors. Licensed under Apache 2.0. See license file at root.",
		"generator":"Khronos glTF Blender I/O v4.1.63",
		"version":"2.0"
	},
	"scene":0,
	"scenes":[
		{
			"name":"Scene",
			"nodes":[
				0,
				1,
				2
			]
		}
	],
	"nodes":[
		{
			"mesh":0,
			"name":"NoMaterial"
		},
		{
			"mesh":1,
			"name":"BaseColor",
			"translation":[
				1,
				0,
				0
			]
		},
		{
			"mesh":2,
			"name":"BaseColorTexture",
			"translation":[
				2,
				0,
				0
			]
		}
	],
	"materials":[
		{
			"doubleSided":true,
			"name":"BaseColor",
			"pbrMetallicRoughness":{
				"baseColorFactor":[
					0.20000000298023224,
					0.5,
					0.75,
					1
				],
				"metallicFactor":0,
				"roughnessFactor":0.5
			}
		},
		{
			"doubleSided":true,
			"name":"BaseColorTexture",
			"pbrMetallicRoughness":{
				"baseColorFactor":[
					0.20000000298023224,
					0.5,
					0.75,
					1
				],
				"baseColorTexture":{
					"index":0
				},
				"metallicFactor":0,
				"roughnessFactor":0.5
			}
		}
	],
	"meshes":[
		{
			"name":"TestMesh",
			"primitives":[
				{
					"attributes":{
						"POSITION":0,
						"NORMAL":1,
						"TEXCOORD_0":2
					},
					"indices":3
				}
			]
		},
		{
			"name":"TestMesh",
			"primitives":[
				{
					"attributes":{
						"POSITION":0,
						"NORMAL":1,
						"TEXCOORD_0":2
					},
					"indices":3,
					"material":0
				}
			]
		},
		{
			"name":"TestMesh",
			"primitives":[
				{
					"attributes":{
						"POSITION":0,
						"NORMAL":1,
						"TEXCOORD_0":2
					},
					"indices":3,
					"material":1
				}
			]
		}
	],
	"textures":[
		{
			"sampler":0,
			"source":0
		}
	],
	"images":[
		{
			"mimeType":"image/png",
			"name":"ColorGrid",
			"uri":"ColorGrid.png"
		}
	],
	"accessors":[
		{
			"bufferView":0,
			"componentType":5126,
			"count":563,
			"max":[
				0.9999999403953552,
				2,
				0.49999967217445374
			],
			"min":[
				0,
				0,
				-0.5
			],
			"type":"VEC3"
		},
		{
			"bufferView":1,
			"componentType":5126,
			"count":563,
			"type":"VEC3"
		},
		{
			"bufferView":2,
			"componentType":5126,
			"count":563,
			"type":"VEC2"
		},
		{
			"bufferView":3,
			"componentType":5123,
			"count":2886,
			"type":"SCALAR"
		}
	],
	"bufferViews":[
		{
			"buffer":0,
			"byteLength":6756,
			"byteOffset":0,
			"target":34962
		},
		{
			"buffer":0,
			"byteLength":6756,
			"byteOffset":6756,
			"target":34962
		},
		{
			"buffer":0,
			"byteLength":4504,
			"byteOffset":13512,
			"target":34962
		},
		{
			"buffer":0,
			"byteLength":5772,
			"byteOffset":18016,
			"target":34963
		}
	],
	"samplers":[
		{
			"magFilter":9729,
			"minFilter":9987
		}
	],
	"buffers":[
		{
			"byteLength":23788,
			"uri":"Materials.bin"
		}
	]
}
