{
    "asset" : {
        "copyright" : "(c) 2022 Andreas Atteneder, CC BY 4.0.",
        "generator" : "Khronos glTF Blender I/O v3.3.27",
        "version" : "2.0"
    },
    "scene" : 0,
    "scenes" : [
        {
            "name" : "Scene",
            "nodes" : [
                0
            ]
        }
    ],
    "nodes" : [
        {
            "extras" : {
                "floatProp" : 3.4700000286102295,
                "intProp" : 42,
                "stringProp" : "Yadiya",
                "eulerAngles" : [
                    1.0,
                    1.1,
                    1.2
                ],
                "intArrayProp" : [
                    1,
                    2,
                    3
                ],
                "rotation" : [
                    0.080521,
                    0.033353,
                    0.381227,
                    0.920364
                ],
                "color" : [
                    0.2,
                    0.5,
                    0.8,
                    1.0
                ],
                "arrayProp": [
                    1,
                    "Yup",
                    true,
                    42.420
                ],
                "objectProp": {
                    "intProp": 42,
                    "arrayProp": [1,2,3]
                }
            },
            "mesh" : 0,
            "name" : "Cube"
        }
    ],
    "materials" : [
        {
            "doubleSided" : true,
            "name" : "Material",
            "pbrMetallicRoughness" : {
                "baseColorFactor" : [
                    0.800000011920929,
                    0.800000011920929,
                    0.800000011920929,
                    1
                ],
                "metallicFactor" : 0,
                "roughnessFactor" : 0.5
            }
        }
    ],
    "meshes" : [
        {
            "name" : "Cube",
            "primitives" : [
                {
                    "attributes" : {
                        "POSITION" : 0,
                        "NORMAL" : 1
                    },
                    "indices" : 2,
                    "material" : 0
                }
            ]
        }
    ],
    "accessors" : [
        {
            "bufferView" : 0,
            "componentType" : 5126,
            "count" : 3,
            "max" : [
                0,
                2,
                1
            ],
            "min" : [
                0,
                0,
                -1
            ],
            "type" : "VEC3"
        },
        {
            "bufferView" : 1,
            "componentType" : 5126,
            "count" : 3,
            "type" : "VEC3"
        },
        {
            "bufferView" : 2,
            "componentType" : 5123,
            "count" : 3,
            "type" : "SCALAR"
        }
    ],
    "bufferViews" : [
        {
            "buffer" : 0,
            "byteLength" : 36,
            "byteOffset" : 0,
            "target" : 34962
        },
        {
            "buffer" : 0,
            "byteLength" : 36,
            "byteOffset" : 36,
            "target" : 34962
        },
        {
            "buffer" : 0,
            "byteLength" : 6,
            "byteOffset" : 72,
            "target" : 34963
        }
    ],
    "buffers" : [
        {
            "byteLength" : 80,
            "uri" : "ExtrasData.bin"
        }
    ]
}
