{
    "asset": {
        "copyright": "(c) 2022 Andreas Atteneder, CC BY 4.0.",
        "generator": "Khronos glTF Blender I/O v3.4.50",
        "version": "2.0"
    },
    "extensionsUsed": [
        "KHR_materials_unlit",
        "UNKNOWN_extension"
    ],
    "scene": 0,
    "scenes": [
        {
            "name": "Scene",
            "nodes": [
                0
            ]
        }
    ],
    "nodes": [
        {
            "mesh": 0,
            "name": "Plane"
        }
    ],
    "materials": [
        {
            "extensions": {
                "KHR_materials_unlit": {}
            },
            "doubleSided": true,
            "name": "Material",
            "pbrMetallicRoughness": {
                "metallicFactor": 0,
                "roughnessFactor": 0.5
            }
        }
    ],
    "meshes": [
        {
            "name": "Plane",
            "primitives": [
                {
                    "attributes": {
                        "POSITION": 0,
                        "TEXCOORD_0": 1,
                        "NORMAL": 2
                    },
                    "indices": 3,
                    "material": 0,
                    "extensions": {
                        "UNKNOWN_extension": {
                            "property": 0
                        }
                    }
                }
            ]
        }
    ],
    "accessors": [
        {
            "bufferView": 0,
            "componentType": 5126,
            "count": 4,
            "max": [
                0,
                0,
                0
            ],
            "min": [
                -1,
                0,
                -1
            ],
            "type": "VEC3"
        },
        {
            "bufferView": 1,
            "componentType": 5126,
            "count": 4,
            "type": "VEC2"
        },
        {
            "bufferView": 2,
            "componentType": 5126,
            "count": 4,
            "type": "VEC3"
        },
        {
            "bufferView": 3,
            "componentType": 5123,
            "count": 6,
            "type": "SCALAR"
        },
        {
            "bufferView": 4,
            "componentType": 5121,
            "count": 32,
            "type": "SCALAR",
            "extensions": {
                "UNKNOWN_extension": {
                    "count": 2
                }
            }
        }
    ],
    "bufferViews": [
        {
            "buffer": 0,
            "byteLength": 48,
            "byteOffset": 0,
            "target": 34962
        },
        {
            "buffer": 0,
            "byteLength": 32,
            "byteOffset": 48,
            "target": 34962
        },
        {
            "buffer": 0,
            "byteLength": 48,
            "byteOffset": 80,
            "target": 34962
        },
        {
            "buffer": 0,
            "byteLength": 12,
            "byteOffset": 128,
            "target": 34963
        },
        {
            "buffer": 0,
            "byteLength": 32,
            "byteOffset": 140,
            "target": 34963
        }
    ],
    "samplers": [
        {
            "magFilter": 9729,
            "minFilter": 9987
        }
    ],
    "buffers": [
        {
            "byteLength": 172,
            "uri": "UnknownExtensions.bin"
        }
    ]
}