{
  "asset": {
    "copyright": "© 2025 Unity Technologies and the glTFast authors. Licensed under Apache 2.0. See license file at root.",
    "generator": "glTF-Transform v4.2.1",
    "version": "2.0"
  },
  "accessors": [
    {
      "type": "VEC3",
      "componentType": 5126,
      "count": 18,
      "max": [
        1,
        0,
        1
      ],
      "min": [
        -1,
        0,
        -1
      ],
      "bufferView": 0,
      "byteOffset": 0
    },
    {
      "type": "VEC3",
      "componentType": 5126,
      "count": 32,
      "max": [
        1,
        0.47704437375068665,
        1
      ],
      "min": [
        -1,
        -0.47704437375068665,
        -1
      ],
      "bufferView": 1,
      "byteOffset": 0
    },
    {
      "type": "VEC3",
      "componentType": 5126,
      "count": 34,
      "max": [
        1,
        1,
        1
      ],
      "min": [
        -1,
        -1,
        -1
      ],
      "bufferView": 2,
      "byteOffset": 0
    }
  ],
  "bufferViews": [
    {
      "buffer": 0,
      "byteOffset": 0,
      "byteLength": 216,
      "byteStride": 12,
      "target": 34962
    },
    {
      "buffer": 0,
      "byteOffset": 216,
      "byteLength": 384,
      "byteStride": 12,
      "target": 34962
    },
    {
      "buffer": 0,
      "byteOffset": 600,
      "byteLength": 408,
      "byteStride": 12,
      "target": 34962
    }
  ],
  "buffers": [
    {
      "uri": "PrimitiveModesNoIndices.bin",
      "byteLength": 1008
    }
  ],
  "meshes": [
    {
      "name": "Circle",
      "primitives": [
        {
          "attributes": {
            "POSITION": 0
          },
          "mode": 6
        }
      ]
    },
    {
      "name": "Circle",
      "primitives": [
        {
          "attributes": {
            "POSITION": 1
          },
          "mode": 2
        }
      ]
    },
    {
      "name": "Cylinder",
      "primitives": [
        {
          "attributes": {
            "POSITION": 2
          },
          "mode": 5
        }
      ]
    }
  ],
  "nodes": [
    {
      "name": "Circle",
      "mesh": 0
    },
    {
      "name": "Circle",
      "mesh": 1,
      "translation": [
        2,
        0,
        0
      ]
    },
    {
      "name": "Cylinder",
      "mesh": 2,
      "translation": [
        -2,
        0,
        0
      ]
    }
  ],
  "scenes": [
    {
      "name": "Scene",
      "nodes": [
        0,1,2
      ]
    }
  ],
  "scene": 0
}
